<?xml version="1.0" encoding="utf-8"?>
<!-- Generator: Adobe Illustrator 24.1.2, SVG Export Plug-In . SVG Version: 6.00 Build 0)  -->
<svg version="1.1" xmlns="http://www.w3.org/2000/svg" xmlns:xlink="http://www.w3.org/1999/xlink" x="0px" y="0px"
	 viewBox="0 0 200 200" enable-background="new 0 0 200 200" xml:space="preserve">
<g id="Layer_14">
	<rect fill="none" width="200" height="200"/>
</g>
<g id="Layer_1">
	<g id="Layer_15">
	</g>
	<linearGradient id="SVGID_1_" gradientUnits="userSpaceOnUse" x1="50.3511" y1="100" x2="149.6489" y2="100">
		<stop  offset="0" style="stop-color:#734EA0"/>
		<stop  offset="0.1442" style="stop-color:#844A93"/>
		<stop  offset="1" style="stop-color:#D71C54"/>
	</linearGradient>
	<path fill="none" stroke="url(#SVGID_1_)" stroke-miterlimit="10" d="M100,50.851c-11.801,0-22.63,4.159-31.102,11.091
		c-1.99,1.628-3.85,3.41-5.562,5.326C55.571,75.959,50.851,87.428,50.851,100c0,27.144,22.005,49.149,49.149,49.149
		s49.149-22.005,49.149-49.149C149.149,72.856,127.144,50.851,100,50.851z"/>
	<g>
		<g>
			<linearGradient id="SVGID_2_" gradientUnits="userSpaceOnUse" x1="69.8574" y1="113.0426" x2="70.8234" y2="113.0426">
				<stop  offset="0" style="stop-color:#734EA0"/>
				<stop  offset="0.1442" style="stop-color:#844A93"/>
				<stop  offset="1" style="stop-color:#D71C54"/>
			</linearGradient>
			<path fill="url(#SVGID_2_)" d="M70.34,113.543c0.643,0,0.645-1,0-1C69.697,112.543,69.696,113.543,70.34,113.543L70.34,113.543z"
				/>
		</g>
	</g>
	<g>
		<g>
			<linearGradient id="SVGID_3_" gradientUnits="userSpaceOnUse" x1="112.1563" y1="129.3192" x2="113.1223" y2="129.3192">
				<stop  offset="0" style="stop-color:#734EA0"/>
				<stop  offset="0.1442" style="stop-color:#844A93"/>
				<stop  offset="1" style="stop-color:#D71C54"/>
			</linearGradient>
			<path fill="url(#SVGID_3_)" d="M112.639,129.819c0.643,0,0.645-1,0-1C111.996,128.819,111.995,129.819,112.639,129.819
				L112.639,129.819z"/>
		</g>
	</g>
</g>
<g id="Layer_2">
	<g>
		<g>
			<linearGradient id="SVGID_4_" gradientUnits="userSpaceOnUse" x1="27.9907" y1="88.0182" x2="67.9198" y2="88.0182">
				<stop  offset="0" style="stop-color:#734EA0"/>
				<stop  offset="0.1442" style="stop-color:#844A93"/>
				<stop  offset="1" style="stop-color:#D71C54"/>
			</linearGradient>
			<path fill="url(#SVGID_4_)" d="M68.126,111.605c-7.528-3.975-14.86-8.382-21.666-13.507c-5.118-3.854-10.173-8.17-13.961-13.383
				c-2.288-3.149-4.686-7.344-3.692-11.392c1.031-4.202,5.263-6.387,9.108-7.454c7.867-2.185,16.552-1.424,24.528-0.352
				c0.629,0.085,0.902-0.879,0.266-0.964c-7.605-1.023-15.597-1.68-23.177-0.102c-4.225,0.879-9.011,2.73-11.039,6.853
				c-1.832,3.724-0.526,7.896,1.427,11.289c3.109,5.4,7.886,9.832,12.667,13.733c7.705,6.287,16.256,11.508,25.035,16.145
				C68.19,112.769,68.695,111.906,68.126,111.605L68.126,111.605z"/>
		</g>
	</g>
	<g>
		<g>
			<linearGradient id="SVGID_5_" gradientUnits="userSpaceOnUse" x1="114.6995" y1="117.5468" x2="172.0093" y2="117.5468">
				<stop  offset="0" style="stop-color:#734EA0"/>
				<stop  offset="0.1442" style="stop-color:#844A93"/>
				<stop  offset="1" style="stop-color:#D71C54"/>
			</linearGradient>
			<path fill="url(#SVGID_5_)" d="M150.546,99.719c6.307,4.457,12.675,9.502,17.175,15.865c2.451,3.465,5.03,8.391,2.94,12.629
				c-1.768,3.586-6.021,5.162-9.667,6.005c-5.978,1.381-12.298,1.262-18.376,0.777c-9.389-0.75-18.671-2.656-27.759-5.086
				c-0.622-0.166-0.888,0.798-0.266,0.964c8.617,2.304,17.399,4.118,26.286,4.969c6.522,0.624,13.287,0.836,19.737-0.518
				c3.917-0.823,8.379-2.403,10.577-6.006c2.377-3.896,0.844-8.614-1.304-12.236c-4.455-7.511-11.817-13.264-18.838-18.227
				C150.524,98.483,150.024,99.35,150.546,99.719L150.546,99.719z"/>
		</g>
	</g>
</g>
<g id="Layer_3">
	<g>
		<g>
			<linearGradient id="SVGID_6_" gradientUnits="userSpaceOnUse" x1="38.3973" y1="124.6662" x2="67.1095" y2="124.6662">
				<stop  offset="0" style="stop-color:#734EA0"/>
				<stop  offset="0.1442" style="stop-color:#844A93"/>
				<stop  offset="1" style="stop-color:#D71C54"/>
			</linearGradient>
			<path fill="url(#SVGID_6_)" d="M64.889,98.208c-5.542,5.574-10.798,11.454-15.467,17.783c-3.634,4.926-7.002,10.167-9.306,15.86
				c-1.485,3.67-2.717,7.924-1.842,11.898c0.821,3.731,3.784,6.115,7.41,6.97c7.05,1.663,14.922-0.73,21.525-3.069
				c0.602-0.213,0.343-1.18-0.266-0.964c-5.983,2.119-12.63,4.095-19.055,3.398c-3.848-0.417-7.524-2.254-8.562-6.237
				c-0.951-3.65,0.178-7.645,1.489-11.057c2.038-5.305,5.115-10.215,8.404-14.824c4.869-6.825,10.472-13.111,16.378-19.051
				C66.05,98.458,65.343,97.751,64.889,98.208L64.889,98.208z"/>
		</g>
	</g>
	<g>
		<g>
			<linearGradient id="SVGID_7_" gradientUnits="userSpaceOnUse" x1="104.7022" y1="59.4647" x2="135.0747" y2="59.4647">
				<stop  offset="0" style="stop-color:#734EA0"/>
				<stop  offset="0.1442" style="stop-color:#844A93"/>
				<stop  offset="1" style="stop-color:#D71C54"/>
			</linearGradient>
			<path fill="url(#SVGID_7_)" d="M134.91,51.454c-10.729,3.666-20.827,9.094-30.407,15.108c-0.544,0.341-0.042,1.207,0.505,0.863
				c9.505-5.968,19.521-11.369,30.168-15.007C135.781,52.211,135.521,51.245,134.91,51.454L134.91,51.454z"/>
		</g>
	</g>
	<g>
		<g>
			<linearGradient id="SVGID_8_" gradientUnits="userSpaceOnUse" x1="147.7121" y1="62.9265" x2="162.6613" y2="62.9265">
				<stop  offset="0" style="stop-color:#734EA0"/>
				<stop  offset="0.1442" style="stop-color:#844A93"/>
				<stop  offset="1" style="stop-color:#D71C54"/>
			</linearGradient>
			<path fill="url(#SVGID_8_)" d="M155.726,77.474c3.33-5.276,6.628-11.252,7.254-17.577c0.435-4.391-1.081-8.637-5.319-10.522
				c-3.089-1.374-6.636-1.378-9.938-1.055c-0.635,0.062-0.641,1.063,0,1c3.431-0.335,7.287-0.38,10.374,1.389
				c2.333,1.337,3.634,3.663,3.902,6.297c0.3,2.947-0.438,5.937-1.413,8.696c-1.407,3.981-3.475,7.706-5.722,11.267
				C154.518,77.515,155.383,78.018,155.726,77.474L155.726,77.474z"/>
		</g>
	</g>
	<linearGradient id="SVGID_9_" gradientUnits="userSpaceOnUse" x1="134.5142" y1="50.766" x2="148.266" y2="50.766">
		<stop  offset="0" style="stop-color:#734EA0"/>
		<stop  offset="0.1442" style="stop-color:#844A93"/>
		<stop  offset="1" style="stop-color:#D71C54"/>
	</linearGradient>
	<circle fill="none" stroke="url(#SVGID_9_)" stroke-miterlimit="10" cx="141.39" cy="50.766" r="6.374"/>
	<g>
		<g>
			<linearGradient id="SVGID_10_" gradientUnits="userSpaceOnUse" x1="137.979" y1="50.681" x2="144.7591" y2="50.681">
				<stop  offset="0" style="stop-color:#734EA0"/>
				<stop  offset="0.1442" style="stop-color:#844A93"/>
				<stop  offset="1" style="stop-color:#D71C54"/>
			</linearGradient>
			<path fill="url(#SVGID_10_)" d="M137.979,51.181c1.98,0,3.96,0,5.94,0c0.28,0,0.56,0,0.84,0c0.643,0,0.645-1,0-1
				c-1.98,0-3.96,0-5.94,0c-0.28,0-0.56,0-0.84,0C137.336,50.181,137.334,51.181,137.979,51.181L137.979,51.181z"/>
		</g>
	</g>
	<g>
		<g>
			<linearGradient id="SVGID_11_" gradientUnits="userSpaceOnUse" x1="73.5262" y1="80.3762" x2="97.5564" y2="80.3762">
				<stop  offset="0" style="stop-color:#734EA0"/>
				<stop  offset="0.1442" style="stop-color:#844A93"/>
				<stop  offset="1" style="stop-color:#D71C54"/>
			</linearGradient>
			<path fill="url(#SVGID_11_)" d="M88.137,59.487c-4.342,6.694-8.683,13.389-13.025,20.083c-0.611,0.942-1.222,1.885-1.834,2.827
				c-0.209,0.323,0.066,0.752,0.432,0.752c3.465,0,6.929,0,10.394,0c-0.161-0.211-0.321-0.422-0.482-0.633
				c-1.147,6.124-2.293,12.248-3.44,18.372c-0.106,0.564,0.582,0.855,0.914,0.385c4.869-6.893,9.739-13.787,14.608-20.68
				c0.697-0.987,1.394-1.974,2.091-2.96c0.225-0.318-0.078-0.752-0.432-0.752c-3.775-0.004-7.55-0.008-11.326-0.013
				c0.161,0.211,0.321,0.422,0.482,0.633c0.844-5.876,1.687-11.752,2.531-17.629c0.09-0.629-0.873-0.901-0.964-0.266
				c-0.844,5.876-1.687,11.752-2.531,17.629c-0.045,0.315,0.125,0.633,0.482,0.633c3.775,0.004,7.55,0.008,11.326,0.013
				c-0.144-0.251-0.288-0.502-0.432-0.752c-4.869,6.893-9.739,13.787-14.608,20.68c-0.697,0.987-1.394,1.974-2.091,2.96
				c0.305,0.128,0.609,0.257,0.914,0.385c1.147-6.124,2.293-12.248,3.44-18.372c0.059-0.315-0.136-0.633-0.482-0.633
				c-3.465,0-6.929,0-10.394,0c0.144,0.251,0.288,0.502,0.432,0.752c4.342-6.694,8.683-13.389,13.025-20.083
				c0.611-0.942,1.222-1.885,1.834-2.827C89.352,59.45,88.486,58.948,88.137,59.487z"/>
		</g>
	</g>
	<g>
		<g>
			<linearGradient id="SVGID_12_" gradientUnits="userSpaceOnUse" x1="69.2982" y1="91.9896" x2="73.5145" y2="91.9896">
				<stop  offset="0" style="stop-color:#734EA0"/>
				<stop  offset="0.1442" style="stop-color:#844A93"/>
				<stop  offset="1" style="stop-color:#D71C54"/>
			</linearGradient>
			<path fill="url(#SVGID_12_)" d="M73.63,93.99c-2.176-0.392-3.76-2.274-3.731-4.493c0.008-0.644-0.992-0.644-1,0
				c-0.034,2.63,1.864,4.989,4.465,5.458c0.265,0.048,0.539-0.072,0.615-0.349C74.046,94.363,73.898,94.039,73.63,93.99L73.63,93.99
				z"/>
		</g>
	</g>
	<g>
		<g>
			<linearGradient id="SVGID_13_" gradientUnits="userSpaceOnUse" x1="71.825" y1="90.5863" x2="74.07" y2="90.5863">
				<stop  offset="0" style="stop-color:#734EA0"/>
				<stop  offset="0.1442" style="stop-color:#844A93"/>
				<stop  offset="1" style="stop-color:#D71C54"/>
			</linearGradient>
			<path fill="url(#SVGID_13_)" d="M74.185,91.414c-0.148-0.028-0.294-0.066-0.435-0.118c-0.015-0.005-0.128-0.053-0.056-0.021
				c0.072,0.032-0.04-0.019-0.053-0.026c-0.064-0.031-0.126-0.064-0.187-0.1c-0.066-0.039-0.13-0.08-0.191-0.124
				c-0.032-0.023-0.117-0.053-0.011-0.006c-0.029-0.012-0.058-0.047-0.081-0.067c-0.106-0.092-0.204-0.192-0.293-0.299
				c-0.011-0.013-0.022-0.027-0.033-0.041c-0.023-0.029-0.015-0.018,0.025,0.032c-0.006-0.023-0.047-0.066-0.061-0.085
				c-0.04-0.058-0.077-0.117-0.112-0.178c-0.035-0.061-0.067-0.124-0.097-0.187c-0.01-0.021-0.02-0.043-0.029-0.064
				c0.008,0.018,0.015,0.036,0.023,0.054c-0.019-0.025-0.027-0.069-0.038-0.1c-0.048-0.135-0.085-0.275-0.11-0.416
				c-0.004-0.024-0.008-0.048-0.012-0.072c0.009,0.067,0.011,0.081,0.006,0.042c-0.003-0.037-0.007-0.073-0.01-0.11
				c-0.005-0.081-0.007-0.161-0.005-0.242c0.005-0.262-0.233-0.512-0.5-0.5c-0.275,0.012-0.495,0.22-0.5,0.5
				c-0.027,1.473,1.035,2.822,2.494,3.093c0.256,0.048,0.552-0.071,0.615-0.349C74.59,91.783,74.46,91.465,74.185,91.414
				L74.185,91.414z"/>
		</g>
	</g>
	<g>
		<g>
			<linearGradient id="SVGID_14_" gradientUnits="userSpaceOnUse" x1="95.7678" y1="70.1121" x2="99.7292" y2="70.1121">
				<stop  offset="0" style="stop-color:#734EA0"/>
				<stop  offset="0.1442" style="stop-color:#844A93"/>
				<stop  offset="1" style="stop-color:#D71C54"/>
			</linearGradient>
			<path fill="url(#SVGID_14_)" d="M95.657,67.999c2.16,0.511,3.605,2.498,3.458,4.706c-0.018,0.27,0.243,0.5,0.5,0.5
				c0.286,0,0.482-0.229,0.5-0.5c0.175-2.632-1.627-5.063-4.192-5.67C95.297,66.887,95.03,67.851,95.657,67.999L95.657,67.999z"/>
		</g>
	</g>
	<g>
		<g>
			<linearGradient id="SVGID_15_" gradientUnits="userSpaceOnUse" x1="95.0749" y1="71.4227" x2="97.1894" y2="71.4227">
				<stop  offset="0" style="stop-color:#734EA0"/>
				<stop  offset="0.1442" style="stop-color:#844A93"/>
				<stop  offset="1" style="stop-color:#D71C54"/>
			</linearGradient>
			<path fill="url(#SVGID_15_)" d="M94.965,70.542c0.074,0.018,0.148,0.038,0.22,0.062c0.036,0.012,0.071,0.025,0.107,0.038
				c0.098,0.035-0.083-0.041,0.019,0.007c0.124,0.059,0.244,0.121,0.359,0.197c0.031,0.02,0.061,0.042,0.091,0.063
				c0.103,0.07-0.08-0.068,0.016,0.011c0.057,0.047,0.112,0.095,0.165,0.146c0.049,0.047,0.095,0.095,0.14,0.146
				c0.024,0.027,0.047,0.056,0.071,0.084c0.023,0.028,0.016,0.019-0.021-0.029c0.011,0.015,0.022,0.029,0.033,0.044
				c0.083,0.114,0.156,0.235,0.22,0.361c0.017,0.033,0.032,0.067,0.048,0.1c0.044,0.094-0.03-0.089,0.006,0.018
				c0.022,0.065,0.046,0.128,0.065,0.194c0.019,0.066,0.036,0.133,0.05,0.2c0.008,0.037,0.014,0.074,0.02,0.112
				c0.023,0.127-0.009-0.111,0.002,0.018c0.013,0.156,0.016,0.31,0.005,0.466c-0.019,0.261,0.243,0.511,0.5,0.5
				c0.287-0.013,0.48-0.22,0.5-0.5c0.106-1.477-0.916-2.856-2.35-3.204c-0.254-0.062-0.554,0.08-0.615,0.349
				C94.557,70.185,94.693,70.476,94.965,70.542L94.965,70.542z"/>
		</g>
	</g>
	<g>
		<g>
			<linearGradient id="SVGID_16_" gradientUnits="userSpaceOnUse" x1="153.1275" y1="78.632" x2="157.1514" y2="78.632">
				<stop  offset="0" style="stop-color:#734EA0"/>
				<stop  offset="0.1442" style="stop-color:#844A93"/>
				<stop  offset="1" style="stop-color:#D71C54"/>
			</linearGradient>
			<path fill="url(#SVGID_16_)" d="M153.569,81.157c1.062-0.458,2.124-0.917,3.186-1.375c0.15-0.065,0.3-0.13,0.451-0.195
				c0.463-0.2,0.348-0.849,0-1.079c-1.055-0.698-2.109-1.396-3.164-2.095c-0.151-0.1-0.302-0.2-0.453-0.3
				c-0.404-0.267-0.938,0.087-0.94,0.54c-0.006,1.155-0.011,2.31-0.017,3.465c-0.001,0.166-0.002,0.333-0.002,0.499
				c-0.002,0.327,0.289,0.64,0.625,0.625c0.34-0.015,0.623-0.275,0.625-0.625c0.006-1.155,0.011-2.31,0.017-3.465
				c0.001-0.166,0.002-0.333,0.002-0.499c-0.313,0.18-0.627,0.36-0.94,0.54c1.055,0.698,2.109,1.396,3.164,2.095
				c0.151,0.1,0.302,0.2,0.453,0.3c0-0.36,0-0.72,0-1.079c-1.062,0.458-2.124,0.917-3.186,1.375c-0.15,0.065-0.3,0.13-0.451,0.195
				c-0.301,0.13-0.392,0.595-0.224,0.855C152.915,81.246,153.247,81.296,153.569,81.157z"/>
		</g>
	</g>
	<g>
		<g>
			<linearGradient id="SVGID_17_" gradientUnits="userSpaceOnUse" x1="66.5576" y1="147.0407" x2="70.7013" y2="147.0407">
				<stop  offset="0" style="stop-color:#734EA0"/>
				<stop  offset="0.1442" style="stop-color:#844A93"/>
				<stop  offset="1" style="stop-color:#D71C54"/>
			</linearGradient>
			<path fill="url(#SVGID_17_)" d="M70.646,145.63c-1.091-0.376-2.182-0.752-3.274-1.128c-0.157-0.054-0.314-0.108-0.471-0.162
				c-0.467-0.161-0.879,0.333-0.769,0.769c0.31,1.229,0.619,2.459,0.929,3.688c0.044,0.173,0.087,0.346,0.131,0.518
				c0.112,0.445,0.727,0.62,1.045,0.276c0.783-0.85,1.565-1.699,2.348-2.549c0.113-0.122,0.225-0.245,0.338-0.367
				c0.229-0.248,0.246-0.638,0-0.884c-0.232-0.232-0.654-0.249-0.884,0c-0.783,0.85-1.565,1.699-2.348,2.549
				c-0.113,0.122-0.225,0.245-0.338,0.367c0.348,0.092,0.696,0.184,1.045,0.276c-0.31-1.229-0.619-2.459-0.929-3.688
				c-0.044-0.173-0.087-0.346-0.131-0.518c-0.256,0.256-0.513,0.513-0.769,0.769c1.091,0.376,2.182,0.752,3.274,1.128
				c0.157,0.054,0.314,0.108,0.471,0.162c0.319,0.11,0.683-0.126,0.769-0.437C71.177,146.056,70.966,145.741,70.646,145.63z"/>
		</g>
	</g>
</g>
<g id="Layer_4">
	<g>
		<g>
			<linearGradient id="SVGID_18_" gradientUnits="userSpaceOnUse" x1="66.9621" y1="95.9705" x2="133.0243" y2="95.9705">
				<stop  offset="0" style="stop-color:#734EA0"/>
				<stop  offset="0.1442" style="stop-color:#844A93"/>
				<stop  offset="1" style="stop-color:#D71C54"/>
			</linearGradient>
			<path fill="url(#SVGID_18_)" d="M130.763,165.374c1.87-4.924,2.432-10.318,2.61-15.547c0.245-7.225-0.366-14.469-1.369-21.62
				c-2.462-17.554-7.392-34.836-14.001-51.267c-5.332-13.256-11.803-26.471-20.721-37.717c-3-3.782-6.363-7.459-10.405-10.15
				c-2.677-1.782-5.927-3.238-9.216-2.745c-4.008,0.601-6.606,4.022-8.107,7.528c-2.528,5.904-2.978,12.677-2.991,19.02
				c-0.004,2.155,0.068,4.309,0.188,6.461c0.036,0.64,1.036,0.644,1,0c-0.397-7.096-0.393-14.477,1.461-21.391
				c1.062-3.96,3.036-8.816,7.254-10.298c3.026-1.064,6.245,0.076,8.875,1.639c3.901,2.318,7.143,5.704,10.029,9.161
				c8.71,10.439,15.035,22.952,20.292,35.412c6.667,15.803,11.674,32.437,14.56,49.35c1.242,7.276,2.084,14.647,2.193,22.034
				c0.082,5.586-0.19,11.302-1.614,16.729c-0.279,1.062-0.61,2.109-1,3.136C129.57,165.71,130.537,165.97,130.763,165.374
				L130.763,165.374z"/>
		</g>
	</g>
	<g>
		<g>
			<linearGradient id="SVGID_19_" gradientUnits="userSpaceOnUse" x1="96.7295" y1="162.397" x2="120.4061" y2="162.397">
				<stop  offset="0" style="stop-color:#734EA0"/>
				<stop  offset="0.1442" style="stop-color:#844A93"/>
				<stop  offset="1" style="stop-color:#D71C54"/>
			</linearGradient>
			<path fill="url(#SVGID_19_)" d="M96.382,151.784c3.641,5.758,7.715,11.44,12.791,16.032c3.12,2.822,6.903,5.555,11.225,5.93
				c0.641,0.056,0.637-0.945,0-1c-4.237-0.368-7.994-3.274-10.989-6.071c-4.792-4.474-8.673-9.876-12.163-15.396
				C96.903,150.737,96.037,151.238,96.382,151.784L96.382,151.784z"/>
		</g>
	</g>
	<linearGradient id="SVGID_20_" gradientUnits="userSpaceOnUse" x1="119.6725" y1="170.6417" x2="133.4243" y2="170.6417">
		<stop  offset="0" style="stop-color:#734EA0"/>
		<stop  offset="0.1442" style="stop-color:#844A93"/>
		<stop  offset="1" style="stop-color:#D71C54"/>
	</linearGradient>
	<circle fill="none" stroke="url(#SVGID_20_)" stroke-miterlimit="10" cx="126.548" cy="170.642" r="6.374"/>
	<g>
		<g>
			<linearGradient id="SVGID_21_" gradientUnits="userSpaceOnUse" x1="123.3219" y1="170.6012" x2="130.102" y2="170.6012">
				<stop  offset="0" style="stop-color:#734EA0"/>
				<stop  offset="0.1442" style="stop-color:#844A93"/>
				<stop  offset="1" style="stop-color:#D71C54"/>
			</linearGradient>
			<path fill="url(#SVGID_21_)" d="M123.322,171.101c1.98,0,3.96,0,5.94,0c0.28,0,0.56,0,0.84,0c0.643,0,0.645-1,0-1
				c-1.98,0-3.96,0-5.94,0c-0.28,0-0.56,0-0.84,0C122.678,170.101,122.677,171.101,123.322,171.101L123.322,171.101z"/>
		</g>
	</g>
	<g>
		<g>
			<linearGradient id="SVGID_22_" gradientUnits="userSpaceOnUse" x1="126.612" y1="170.6012" x2="126.812" y2="170.6012">
				<stop  offset="0" style="stop-color:#734EA0"/>
				<stop  offset="0.1442" style="stop-color:#844A93"/>
				<stop  offset="1" style="stop-color:#D71C54"/>
			</linearGradient>
			<path fill="url(#SVGID_22_)" d="M126.212,167.211c0,1.98,0,3.96,0,5.94c0,0.28,0,0.56,0,0.84c0,0.643,1,0.645,1,0
				c0-1.98,0-3.96,0-5.94c0-0.28,0-0.56,0-0.84C127.212,166.568,126.212,166.567,126.212,167.211L126.212,167.211z"/>
		</g>
	</g>
</g>
<g id="Layer_9">
	<g>
		<g>
			<linearGradient id="SVGID_23_" gradientUnits="userSpaceOnUse" x1="74.3344" y1="123.1027" x2="106.2021" y2="123.1027">
				<stop  offset="0" style="stop-color:#734EA0"/>
				<stop  offset="0.1442" style="stop-color:#844A93"/>
				<stop  offset="1" style="stop-color:#D71C54"/>
			</linearGradient>
			<path fill="url(#SVGID_23_)" d="M74.131,115.898c1.343,0.749,3.001,1.765,4.567,1.884c1.065,0.081,1.636-0.706,2.541-1.087
				c0.883-0.371,0.642,0.173,0.383,0.755c-0.197,0.442-0.445,0.859-0.658,1.293c-0.5,1.02-0.974,2.823,0.839,2.609
				c1.643-0.194,3.048-2.1,4.123-3.175c0.308-0.308,0.615-0.636,0.962-0.903c0.134-0.103,0.306-0.185,0.434-0.292
				c0.223-0.187-0.061,0.019-0.083-0.189c0.071,0.676-0.486,1.558-0.762,2.139c-0.744,1.57-1.7,3.091-2.262,4.741
				c-0.278,0.816-0.228,1.896,0.93,1.64c1.171-0.259,2.286-1.529,3.113-2.309c1.424-1.342,2.77-2.764,4.15-4.151
				c0.597-0.601,1.196-1.203,1.827-1.768c0.119-0.107,1.065-0.742,1.071-0.834c0.12-1.984-0.387-0.249-0.337-0.269
				c-0.027,0.011-0.044,0.214-0.066,0.243c-0.121,0.16-0.178,0.468-0.261,0.655c-0.284,0.639-0.619,1.258-0.95,1.873
				c-0.883,1.64-1.82,3.25-2.737,4.87c-0.858,1.517-1.731,3.035-2.477,4.612c-0.298,0.63-1.068,1.901-0.674,2.629
				c1.017,1.876,5.194-3.893,5.662-4.464c0.661-0.806,1.316-1.62,2.006-2.403c0.123-0.14,1.006-1.304,1.238-1.234
				c-0.083-0.025-1.624,4.245-0.999,5.068c1.288,1.695,3.66-1.551,4.635-2.102c1.021-0.578,2.333,0.151,3.298,0.591
				c0.769,0.35,1.525,0.736,2.259,1.154c0.56,0.319,1.065-0.545,0.505-0.863c-1.438-0.818-3.037-1.703-4.671-2.042
				c-2.13-0.441-2.918,1.659-4.565,2.483c-1.274,0.638-0.469-1.159-0.247-1.773c0.27-0.746,0.708-1.61,0.633-2.425
				c-0.118-1.283-1.127-1.211-1.873-0.537c-1.248,1.128-2.262,2.572-3.326,3.866c-0.575,0.698-1.152,1.396-1.751,2.074
				c-0.548,0.619-1.234,1.146-1.764,1.766c-0.065,0.076-0.341,0.146-0.371,0.227c-0.052,0.14,0.303,0.152,0.244,0.196
				c-0.014,0.01,0.041-0.198,0.028-0.181c0.305-0.421,0.441-1.2,0.675-1.684c0.75-1.555,1.61-3.057,2.46-4.558
				c0.897-1.585,1.813-3.161,2.677-4.764c0.485-0.9,1.275-2.031,1.39-3.078c0.101-0.916-0.626-1.079-1.314-0.682
				c-1.236,0.713-2.281,1.992-3.27,2.993c-1.394,1.411-2.761,2.855-4.225,4.194c-0.518,0.474-1.046,0.963-1.638,1.344
				c-0.202,0.13-0.402,0.223-0.618,0.321c-0.135,0.061,0.147-0.105,0.145,0.185c0.001-0.129,0.041-0.339,0.106-0.45
				c0.366-0.627,0.597-1.412,0.924-2.07c0.461-0.927,0.947-1.843,1.383-2.782c0.334-0.718,1.344-2.422,0.498-3.108
				c-1.114-0.904-2.983,1.622-3.613,2.256c-0.451,0.453-1.912,2.217-2.676,1.991c-0.573-0.169,0.64-1.985,0.839-2.417
				c0.271-0.589,0.654-1.412,0.259-2.037c-0.551-0.87-1.603-0.34-2.257,0.066c-0.492,0.306-1.002,0.781-1.605,0.814
				c-0.588,0.032-1.334-0.356-1.856-0.579c-0.817-0.349-1.615-0.753-2.39-1.185C74.073,114.72,73.568,115.584,74.131,115.898
				L74.131,115.898z"/>
		</g>
	</g>
	<g>
		<g>
			<linearGradient id="SVGID_24_" gradientUnits="userSpaceOnUse" x1="104.7967" y1="126.3372" x2="108.9695" y2="126.3372">
				<stop  offset="0" style="stop-color:#734EA0"/>
				<stop  offset="0.1442" style="stop-color:#844A93"/>
				<stop  offset="1" style="stop-color:#D71C54"/>
			</linearGradient>
			<path fill="url(#SVGID_24_)" d="M109.306,127.362c-0.48-0.867-0.961-1.735-1.441-2.602c-0.07-0.126-0.139-0.252-0.209-0.377
				c-0.235-0.425-0.835-0.385-1.079,0c-0.606,0.954-1.213,1.908-1.819,2.862c-0.087,0.136-0.173,0.273-0.26,0.409
				c-0.242,0.381,0.069,0.977,0.54,0.94c1.087-0.085,2.173-0.17,3.26-0.255c0.156-0.012,0.313-0.024,0.469-0.037
				c0.325-0.025,0.641-0.269,0.625-0.625c-0.014-0.317-0.276-0.652-0.625-0.625c-1.087,0.085-2.173,0.17-3.26,0.255
				c-0.156,0.012-0.313,0.024-0.469,0.037c0.18,0.313,0.36,0.627,0.54,0.94c0.606-0.954,1.213-1.908,1.819-2.862
				c0.087-0.136,0.173-0.273,0.26-0.409c-0.36,0-0.72,0-1.079,0c0.48,0.867,0.961,1.735,1.441,2.602
				c0.07,0.126,0.139,0.252,0.209,0.377c0.159,0.286,0.576,0.404,0.855,0.224C109.371,128.03,109.475,127.668,109.306,127.362z"/>
		</g>
	</g>
</g>
<g id="Layer_11" display="none">
	<linearGradient id="SVGID_25_" gradientUnits="userSpaceOnUse" x1="58.9744" y1="50.8511" x2="61.356" y2="50.8511">
		<stop  offset="0" style="stop-color:#734EA0"/>
		<stop  offset="0.1442" style="stop-color:#844A93"/>
		<stop  offset="1" style="stop-color:#D71C54"/>
	</linearGradient>
	<circle display="inline" fill="none" stroke="url(#SVGID_25_)" stroke-miterlimit="10" cx="60.165" cy="50.851" r="0.691"/>
</g>
<g id="Layer_12" display="none">
	<linearGradient id="SVGID_26_" gradientUnits="userSpaceOnUse" x1="144.6866" y1="146.7896" x2="147.0682" y2="146.7896">
		<stop  offset="0" style="stop-color:#734EA0"/>
		<stop  offset="0.1442" style="stop-color:#844A93"/>
		<stop  offset="1" style="stop-color:#D71C54"/>
	</linearGradient>
	<circle display="inline" fill="none" stroke="url(#SVGID_26_)" stroke-miterlimit="10" cx="145.877" cy="146.79" r="0.691"/>
</g>
<g id="Layer_5" display="none">
	<linearGradient id="SVGID_27_" gradientUnits="userSpaceOnUse" x1="168.7644" y1="105.3264" x2="175.8582" y2="105.3264">
		<stop  offset="0" style="stop-color:#734EA0"/>
		<stop  offset="0.1442" style="stop-color:#844A93"/>
		<stop  offset="1" style="stop-color:#D71C54"/>
	</linearGradient>
	<circle display="inline" fill="none" stroke="url(#SVGID_27_)" stroke-miterlimit="10" cx="172.311" cy="105.326" r="3.046"/>
</g>
<g id="Layer_10" display="none">
	<linearGradient id="SVGID_28_" gradientUnits="userSpaceOnUse" x1="37.9973" y1="110.8447" x2="40.3789" y2="110.8447">
		<stop  offset="0" style="stop-color:#734EA0"/>
		<stop  offset="0.1442" style="stop-color:#844A93"/>
		<stop  offset="1" style="stop-color:#D71C54"/>
	</linearGradient>
	<circle display="inline" fill="none" stroke="url(#SVGID_28_)" stroke-miterlimit="10" cx="39.188" cy="110.845" r="0.691"/>
</g>
<g id="Layer_6" display="none">
	<linearGradient id="SVGID_29_" gradientUnits="userSpaceOnUse" x1="53.0061" y1="43.6731" x2="60.0999" y2="43.6731">
		<stop  offset="0" style="stop-color:#734EA0"/>
		<stop  offset="0.1442" style="stop-color:#844A93"/>
		<stop  offset="1" style="stop-color:#D71C54"/>
	</linearGradient>
	<circle display="inline" fill="none" stroke="url(#SVGID_29_)" stroke-miterlimit="10" cx="56.553" cy="43.673" r="3.046"/>
</g>
<g id="Layer_7" display="none">
	<g display="inline">
		<g>
			<linearGradient id="SVGID_30_" gradientUnits="userSpaceOnUse" x1="160.8563" y1="90.4562" x2="167.2007" y2="90.4562">
				<stop  offset="0" style="stop-color:#734EA0"/>
				<stop  offset="0.1442" style="stop-color:#844A93"/>
				<stop  offset="1" style="stop-color:#D71C54"/>
			</linearGradient>
			<path fill="url(#SVGID_30_)" d="M166.643,90.204c-1.016,1.332-2.031,2.664-3.046,3.996c0.288,0,0.576,0,0.863,0
				c-1.016-1.332-2.031-2.664-3.046-3.996c0,0.168,0,0.336,0,0.505c1.016-1.332,2.031-2.664,3.046-3.996c-0.288,0-0.576,0-0.863,0
				c1.015,1.332,2.031,2.664,3.046,3.996c0.165,0.216,0.429,0.325,0.684,0.179c0.213-0.121,0.343-0.47,0.179-0.684
				c-1.015-1.332-2.031-2.664-3.046-3.996c-0.242-0.318-0.621-0.318-0.863,0c-1.016,1.332-2.031,2.664-3.047,3.996
				c-0.096,0.125-0.096,0.379,0,0.505c1.016,1.332,2.031,2.664,3.047,3.996c0.242,0.318,0.621,0.318,0.863,0
				c1.016-1.332,2.031-2.664,3.046-3.996c0.165-0.216,0.032-0.557-0.179-0.684C167.072,89.872,166.806,89.99,166.643,90.204z"/>
		</g>
	</g>
</g>
<g id="Layer_8" display="none">
	<linearGradient id="SVGID_31_" gradientUnits="userSpaceOnUse" x1="30.421" y1="115.5316" x2="37.7715" y2="115.5316">
		<stop  offset="0" style="stop-color:#734EA0"/>
		<stop  offset="0.1442" style="stop-color:#844A93"/>
		<stop  offset="1" style="stop-color:#D71C54"/>
	</linearGradient>
	<polygon display="inline" fill="none" stroke="url(#SVGID_31_)" stroke-miterlimit="10" points="37.143,115.532 34.096,119.528 
		31.05,115.532 34.096,111.536 	"/>
</g>
<g id="Layer_13">
</g>
</svg>
