<?xml version="1.0" encoding="utf-8"?>
<!-- Generator: Adobe Illustrator 24.1.2, SVG Export Plug-In . SVG Version: 6.00 Build 0)  -->
<svg version="1.1" xmlns="http://www.w3.org/2000/svg" xmlns:xlink="http://www.w3.org/1999/xlink" x="0px" y="0px"
	 viewBox="0 0 200 200" enable-background="new 0 0 200 200" xml:space="preserve">
<g id="Layer_14" display="none">
	<rect display="inline" fill="#130F3B" width="200" height="200"/>
</g>
<g id="Layer_23">
	<g>
		<linearGradient id="SVGID_1_" gradientUnits="userSpaceOnUse" x1="62.4307" y1="119.6972" x2="148.9966" y2="73.1747">
			<stop  offset="0" style="stop-color:#2484C6;stop-opacity:0"/>
			<stop  offset="1" style="stop-color:#28245F"/>
		</linearGradient>
		<path fill="url(#SVGID_1_)" d="M149.915,99.574c0-27.144-22.005-49.149-49.149-49.149S51.617,72.43,51.617,99.574
			c0,13.576,5.878,24.051,9.241,28.694c5.104,7.046,11.034,11.323,15.045,13.67c9.685,5.669,19.335,6.852,24.863,6.785
			C121.282,148.472,149.915,130.197,149.915,99.574z"/>
		<g>
			<linearGradient id="SVGID_2_" gradientUnits="userSpaceOnUse" x1="51.367" y1="99.556" x2="150.1649" y2="99.556">
				<stop  offset="0" style="stop-color:#7B2A87"/>
				<stop  offset="1" style="stop-color:#2D286B"/>
			</linearGradient>
			<path fill="url(#SVGID_2_)" d="M151.165,99.574c-0.037-10.456-3.272-20.783-9.384-29.287
				c-5.963-8.296-14.339-14.666-23.95-18.146c-19.95-7.223-43.029-0.727-56.3,15.808c-6.444,8.029-10.316,17.855-11.041,28.129
				c-0.775,10.978,2.259,22.25,8.328,31.428c6.454,9.76,16.434,17.005,27.619,20.352c9.005,2.695,18.319,2.753,27.281-0.081
				c18.156-5.74,33.594-20.99,36.773-40.139C150.933,104.973,151.155,102.279,151.165,99.574c0.006-1.609-2.494-1.611-2.5,0
				c-0.037,9.895-3.243,19.421-9.206,27.321c-5.382,7.13-12.745,12.722-20.872,16.371c-7.336,3.294-15.316,4.845-23.331,3.9
				c-11.252-1.327-21.848-6.738-29.574-15.004c-6.93-7.414-11.374-17.189-12.515-27.273C52,94.582,54.272,84.029,59.574,75.116
				c10.251-17.233,30.78-26.451,50.474-22.545c19.467,3.861,34.844,19.814,38.024,39.398c0.408,2.514,0.584,5.06,0.593,7.606
				C148.671,101.183,151.171,101.186,151.165,99.574z"/>
		</g>
	</g>
	<g>
		<path fill="#1F1B50" d="M83.3,140.297c18.861-10.701,36.048-24.799,50.839-40.619c3.846-4.113,7.522-8.384,10.974-12.833
			c0.39-0.502-0.313-1.215-0.707-0.707c-13.208,17.022-29.532,31.891-47.19,44.182c-4.669,3.25-9.472,6.306-14.421,9.113
			C82.235,139.751,82.739,140.616,83.3,140.297L83.3,140.297z"/>
	</g>
	
		<linearGradient id="SVGID_3_" gradientUnits="userSpaceOnUse" x1="64.9149" y1="113.179" x2="126.807" y2="113.179" gradientTransform="matrix(-0.1157 0.9933 -0.9933 -0.1157 219.3714 31.0573)">
		<stop  offset="0" style="stop-color:#3A5DA1"/>
		<stop  offset="0.1959" style="stop-color:#375092"/>
		<stop  offset="0.7296" style="stop-color:#303375"/>
		<stop  offset="1" style="stop-color:#2D286B"/>
	</linearGradient>
	<circle fill="url(#SVGID_3_)" cx="95.861" cy="113.179" r="30.946"/>
</g>
<g id="Layer_3" display="none">
	<g id="Layer_8" display="inline">
		<g>
			<g>
				<path fill="#482D6F" d="M99.18,152.25c-8.531-24.082-15.028-48.964-19.682-74.079c-1.23-6.635-2.311-13.298-3.212-19.986
					c-0.107-0.793-1.311-0.456-1.205,0.332c3.396,25.237,9.145,50.224,16.515,74.588c1.978,6.54,4.097,13.037,6.379,19.478
					C98.241,153.335,99.449,153.011,99.18,152.25L99.18,152.25z"/>
			</g>
		</g>
	</g>
</g>
<g id="Layer_24">
	<linearGradient id="SVGID_4_" gradientUnits="userSpaceOnUse" x1="55.7146" y1="112.2568" x2="140.7423" y2="112.2568">
		<stop  offset="0" style="stop-color:#7B2A87"/>
		<stop  offset="1" style="stop-color:#2D286B"/>
	</linearGradient>
	<path display="none" fill="url(#SVGID_4_)" d="M55.715,95.643c1.7-3.377,5.598-4.221,8.151-4.059
		c6.714,0.426,14.055,6.878,21.319,9.074c13.511,4.085,36.05-8.421,40.318-9.106c14.051-2.254,16.56,7.448,14.704,12.985
		c-3.13,9.335-16.753,27.745-36.894,28.723C75.135,134.629,55.715,95.643,55.715,95.643z"/>
</g>
<g id="Layer_2">
	<g id="Layer_1">
		<g>
			<g>
				<path fill="#E8BED9" d="M70.48,114.333c0.643,0,0.645-1,0-1C69.836,113.333,69.835,114.333,70.48,114.333L70.48,114.333z"/>
			</g>
		</g>
		<g>
			<g>
				<linearGradient id="SVGID_5_" gradientUnits="userSpaceOnUse" x1="112.1563" y1="129.3192" x2="113.1223" y2="129.3192">
					<stop  offset="0" style="stop-color:#F06597"/>
					<stop  offset="1" style="stop-color:#E763A5"/>
				</linearGradient>
				<path fill="url(#SVGID_5_)" d="M112.639,129.819c0.643,0,0.645-1,0-1C111.996,128.819,111.995,129.819,112.639,129.819
					L112.639,129.819z"/>
			</g>
		</g>
	</g>
	<g>
		<linearGradient id="SVGID_6_" gradientUnits="userSpaceOnUse" x1="166.3002" y1="111.6623" x2="119.4481" y2="138.7124">
			<stop  offset="0" style="stop-color:#332D78"/>
			<stop  offset="0.1206" style="stop-color:#462E7A"/>
			<stop  offset="0.3716" style="stop-color:#6F307E"/>
			<stop  offset="0.728" style="stop-color:#AC3785"/>
			<stop  offset="1" style="stop-color:#E4408E"/>
		</linearGradient>
		<path fill="url(#SVGID_6_)" d="M150.577,99.741c6.298,4.454,12.658,9.496,17.151,15.853c2.448,3.464,5.021,8.385,2.933,12.619
			c-1.768,3.586-6.021,5.162-9.667,6.005c-5.978,1.381-12.298,1.262-18.376,0.777c-9.389-0.75-18.671-2.656-27.759-5.086
			c-0.622-0.166-0.888,0.798-0.266,0.964c8.617,2.304,17.399,4.118,26.286,4.969c6.522,0.624,13.287,0.836,19.737-0.518
			c3.917-0.823,8.379-2.403,10.577-6.006c2.375-3.893,0.846-8.607-1.3-12.228c-4.448-7.504-11.799-13.253-18.811-18.212
			C150.555,98.505,150.055,99.372,150.577,99.741L150.577,99.741z"/>
	</g>
	<g>
		<linearGradient id="SVGID_7_" gradientUnits="userSpaceOnUse" x1="70.3529" y1="76.9496" x2="38.2641" y2="95.4761">
			<stop  offset="0" style="stop-color:#332D78"/>
			<stop  offset="0.1206" style="stop-color:#462E7A"/>
			<stop  offset="0.3716" style="stop-color:#6F307E"/>
			<stop  offset="0.728" style="stop-color:#AC3785"/>
			<stop  offset="1" style="stop-color:#E4408E"/>
		</linearGradient>
		<path fill="url(#SVGID_7_)" d="M63.092,63.787c-7.714-1.229-15.802-2.047-23.558-0.692c-4.344,0.759-9.568,2.473-11.56,6.815
			c-1.698,3.703-0.312,7.891,1.56,11.24c3.076,5.502,7.793,10.085,12.537,14.147c7.594,6.502,16.051,11.973,24.752,16.865
			c0.562,0.316,1.066-0.548,0.505-0.863c-7.476-4.203-14.752-8.832-21.472-14.173c-5.024-3.992-9.953-8.413-13.678-13.679
			c-2.284-3.229-4.709-7.501-3.799-11.619c0.966-4.372,5.497-6.403,9.443-7.36c8.086-1.96,16.898-1.009,25.005,0.283
			C63.456,64.852,63.727,63.888,63.092,63.787L63.092,63.787z"/>
	</g>
</g>
<g id="Layer_22">
	<g>
		<linearGradient id="SVGID_8_" gradientUnits="userSpaceOnUse" x1="66.7352" y1="147.0458" x2="70.4798" y2="147.0458">
			<stop  offset="0" style="stop-color:#3C3C90"/>
			<stop  offset="0.5428" style="stop-color:#3C3C90"/>
			<stop  offset="1" style="stop-color:#3C3C90"/>
		</linearGradient>
		<polygon fill="url(#SVGID_8_)" points="70.48,146.233 66.735,144.943 67.794,149.149 		"/>
		<g>
			<path fill="#3C3C90" d="M70.613,145.751c-1.091-0.376-2.182-0.752-3.274-1.128c-0.157-0.054-0.314-0.108-0.471-0.162
				c-0.373-0.129-0.703,0.266-0.615,0.615c0.31,1.229,0.619,2.459,0.929,3.688c0.044,0.173,0.087,0.346,0.131,0.518
				c0.09,0.356,0.582,0.496,0.836,0.221c0.783-0.85,1.565-1.699,2.348-2.549c0.113-0.122,0.225-0.245,0.338-0.367
				c0.183-0.199,0.196-0.511,0-0.707c-0.185-0.185-0.523-0.199-0.707,0c-0.783,0.85-1.565,1.699-2.348,2.549
				c-0.113,0.122-0.225,0.245-0.338,0.367c0.279,0.074,0.557,0.147,0.836,0.221c-0.31-1.229-0.619-2.459-0.929-3.688
				c-0.044-0.173-0.087-0.346-0.131-0.518c-0.205,0.205-0.41,0.41-0.615,0.615c1.091,0.376,2.182,0.752,3.274,1.128
				c0.157,0.054,0.314,0.108,0.471,0.162c0.255,0.088,0.547-0.101,0.615-0.349C71.037,146.091,70.869,145.839,70.613,145.751z"/>
		</g>
	</g>
	<g>
		<linearGradient id="SVGID_9_" gradientUnits="userSpaceOnUse" x1="52.7667" y1="98.4907" x2="52.7667" y2="150.8045">
			<stop  offset="0" style="stop-color:#D0DF63"/>
			<stop  offset="1" style="stop-color:#3C3C90"/>
		</linearGradient>
		<path fill="url(#SVGID_9_)" d="M64.889,98.208c-5.542,5.574-10.798,11.454-15.467,17.783c-3.634,4.926-7.002,10.167-9.306,15.86
			c-1.485,3.67-2.717,7.924-1.842,11.898c0.821,3.731,3.784,6.115,7.41,6.97c7.05,1.663,14.922-0.73,21.525-3.069
			c0.602-0.213,0.343-1.18-0.266-0.964c-5.983,2.119-12.63,4.095-19.055,3.398c-3.848-0.417-7.524-2.254-8.562-6.237
			c-0.951-3.65,0.178-7.645,1.489-11.057c2.038-5.305,5.115-10.215,8.404-14.824c4.869-6.825,10.472-13.111,16.378-19.051
			C66.05,98.458,65.343,97.751,64.889,98.208L64.889,98.208z"/>
	</g>
</g>
<g id="Layer_21">
	<g>
		<linearGradient id="SVGID_10_" gradientUnits="userSpaceOnUse" x1="153.2535" y1="78.6352" x2="156.8898" y2="78.6352">
			<stop  offset="0" style="stop-color:#3C3C90"/>
			<stop  offset="0.5428" style="stop-color:#3C3C90"/>
			<stop  offset="1" style="stop-color:#3C3C90"/>
		</linearGradient>
		<polygon fill="url(#SVGID_10_)" points="153.253,80.617 156.89,79.047 153.273,76.653 		"/>
		<g>
			<path fill="#3C3C90" d="M153.506,81.049c1.062-0.458,2.124-0.917,3.186-1.375c0.15-0.065,0.3-0.13,0.451-0.195
				c0.37-0.16,0.278-0.679,0-0.863c-1.055-0.698-2.109-1.396-3.164-2.095c-0.151-0.1-0.302-0.2-0.453-0.3
				c-0.323-0.214-0.751,0.069-0.752,0.432c-0.006,1.155-0.011,2.31-0.017,3.465c-0.001,0.166-0.002,0.333-0.002,0.499
				c-0.003,0.644,0.997,0.644,1,0c0.006-1.155,0.011-2.31,0.017-3.465c0.001-0.166,0.002-0.333,0.002-0.499
				c-0.251,0.144-0.502,0.288-0.752,0.432c1.055,0.698,2.109,1.396,3.164,2.095c0.151,0.1,0.302,0.2,0.453,0.3
				c0-0.288,0-0.576,0-0.863c-1.062,0.458-2.124,0.917-3.186,1.375c-0.15,0.065-0.3,0.13-0.451,0.195
				c-0.248,0.107-0.304,0.471-0.179,0.684C152.972,81.126,153.257,81.157,153.506,81.049z"/>
		</g>
	</g>
	<g>
		<linearGradient id="SVGID_11_" gradientUnits="userSpaceOnUse" x1="147.6187" y1="62.9262" x2="162.6613" y2="62.9262">
			<stop  offset="0.0615" style="stop-color:#3C3C90"/>
			<stop  offset="1" style="stop-color:#3C3C90"/>
		</linearGradient>
		<path fill="url(#SVGID_11_)" d="M155.726,77.474c3.33-5.276,6.628-11.252,7.254-17.577c0.436-4.401-1.089-8.649-5.34-10.531
			c-3.113-1.378-6.686-1.369-10.01-1.036c-0.634,0.064-0.641,1.064,0,1c3.453-0.347,7.34-0.405,10.452,1.371
			c2.341,1.336,3.648,3.664,3.917,6.306c0.3,2.947-0.438,5.937-1.413,8.696c-1.407,3.981-3.475,7.706-5.722,11.267
			C154.518,77.515,155.383,78.018,155.726,77.474L155.726,77.474z"/>
	</g>
	<g>
		<linearGradient id="SVGID_12_" gradientUnits="userSpaceOnUse" x1="104.9672" y1="59.3587" x2="134.881" y2="59.3587">
			<stop  offset="0" style="stop-color:#D0DF63"/>
			<stop  offset="1" style="stop-color:#3C3C90"/>
		</linearGradient>
		<path fill="url(#SVGID_12_)" d="M134.715,51.427c-10.558,3.672-20.502,9.02-29.947,14.951c-0.544,0.341-0.042,1.207,0.505,0.863
			c9.371-5.884,19.233-11.207,29.708-14.85C135.585,52.181,135.326,51.215,134.715,51.427L134.715,51.427z"/>
	</g>
</g>
<g id="Layer_20">
	<g>
		<g>
			<linearGradient id="SVGID_13_" gradientUnits="userSpaceOnUse" x1="134.5127" y1="50.7659" x2="148.265" y2="50.7659">
				<stop  offset="0" style="stop-color:#F06597"/>
				<stop  offset="1" style="stop-color:#E763A5"/>
			</linearGradient>
			<path fill="url(#SVGID_13_)" d="M141.392,57.641c-3.087,0-5.9-2.097-6.675-5.225c-0.441-1.782-0.161-3.63,0.787-5.202
				c0.949-1.572,2.453-2.681,4.235-3.122l0,0c3.675-0.911,7.413,1.342,8.324,5.022c0.909,3.68-1.344,7.414-5.022,8.324
				C142.489,57.576,141.936,57.641,141.392,57.641z M139.979,45.063c-1.523,0.377-2.809,1.324-3.619,2.667
				c-0.811,1.344-1.05,2.922-0.673,4.445c0.777,3.144,3.965,5.073,7.113,4.292c3.144-0.778,5.069-3.969,4.292-7.113
				C146.314,46.211,143.122,44.287,139.979,45.063L139.979,45.063z"/>
		</g>
		<g>
			<linearGradient id="SVGID_14_" gradientUnits="userSpaceOnUse" x1="137.979" y1="50.681" x2="144.7591" y2="50.681">
				<stop  offset="0" style="stop-color:#F06597"/>
				<stop  offset="1" style="stop-color:#E763A5"/>
			</linearGradient>
			<path fill="url(#SVGID_14_)" d="M137.979,51.181c1.98,0,3.96,0,5.94,0c0.28,0,0.56,0,0.84,0c0.643,0,0.645-1,0-1
				c-1.98,0-3.96,0-5.94,0c-0.28,0-0.56,0-0.84,0C137.336,50.181,137.334,51.181,137.979,51.181L137.979,51.181z"/>
		</g>
	</g>
</g>
<g id="Layer_4">
	<g display="none">
		<g display="inline">
			<linearGradient id="SVGID_15_" gradientUnits="userSpaceOnUse" x1="105.3039" y1="173.2903" x2="148.3189" y2="173.2903">
				<stop  offset="0" style="stop-color:#46296F"/>
				<stop  offset="0.1391" style="stop-color:#4D2F71"/>
				<stop  offset="0.3766" style="stop-color:#5E4278"/>
				<stop  offset="0.6836" style="stop-color:#7C6085"/>
				<stop  offset="1" style="stop-color:#A68A97"/>
			</linearGradient>
			<path fill="url(#SVGID_15_)" d="M147.869,183.973c-0.02,3.488-0.007,11.353-4.777,12.126c-2.431,0.394-4.911-1.263-6.741-2.651
				c-3.245-2.461-6.001-5.582-8.564-8.725c-3.614-4.431-6.868-9.154-9.953-13.965c-4.35-6.782-8.346-13.787-12.14-20.894
				c-0.227-0.426-0.875-0.048-0.648,0.379c6.486,12.151,13.481,24.306,22.21,35.01c2.689,3.298,5.591,6.561,9.042,9.085
				c1.928,1.411,4.436,2.906,6.935,2.493c5.247-0.867,5.364-8.924,5.386-12.859C148.622,183.491,147.872,183.49,147.869,183.973
				L147.869,183.973z"/>
		</g>
	</g>
	<g display="none">
		<g display="inline">
			<linearGradient id="SVGID_16_" gradientUnits="userSpaceOnUse" x1="59.6382" y1="88.0827" x2="147.1273" y2="88.0827">
				<stop  offset="0" style="stop-color:#46296F"/>
				<stop  offset="0.1391" style="stop-color:#4D2F71"/>
				<stop  offset="0.3766" style="stop-color:#5E4278"/>
				<stop  offset="0.6836" style="stop-color:#7C6085"/>
				<stop  offset="1" style="stop-color:#A68A97"/>
			</linearGradient>
			<path fill="url(#SVGID_16_)" d="M69.09,60.096c-3.364-9.446-6.333-19.121-7.97-29.031c-0.963-5.826-1.682-12.131-0.399-17.97
				c0.608-2.768,2.04-6.562,5.248-7.139c3.3-0.595,6.722,2.408,8.943,4.425c4.562,4.143,8.349,9.153,11.878,14.177
				c4.933,7.021,9.359,14.395,13.528,21.891c10.893,19.586,20.11,40.139,28.099,61.067c7.149,18.728,13.558,37.996,17.32,57.722
				c0.349,1.831,0.669,3.668,0.956,5.51c0.074,0.475,0.797,0.274,0.723-0.199c-3.059-19.634-9.268-38.846-16.108-57.448
				c-7.982-21.709-17.321-43.015-28.331-63.365c-4.352-8.044-8.979-15.96-14.13-23.521c-3.68-5.401-7.617-10.769-12.315-15.34
				c-2.483-2.416-5.767-5.453-9.427-5.715c-3.016-0.216-5.14,2.274-6.206,4.825c-1.984,4.745-1.755,10.381-1.279,15.388
				c0.854,8.978,3.167,17.811,5.873,26.389c0.903,2.863,1.868,5.706,2.875,8.535C68.528,60.747,69.253,60.553,69.09,60.096
				L69.09,60.096z"/>
		</g>
	</g>
	<g>
		<linearGradient id="SVGID_17_" gradientUnits="userSpaceOnUse" x1="67.0007" y1="93.2982" x2="132.9993" y2="93.2982">
			<stop  offset="0" style="stop-color:#46296F"/>
			<stop  offset="0.1391" style="stop-color:#4D2F71"/>
			<stop  offset="0.3766" style="stop-color:#5E4278"/>
			<stop  offset="0.6836" style="stop-color:#7C6085"/>
			<stop  offset="1" style="stop-color:#A68A97"/>
		</linearGradient>
		<path fill="url(#SVGID_17_)" d="M132.156,159.971c1.128-5.71,1.285-11.588,1.06-17.389c-0.288-7.444-1.258-14.86-2.61-22.181
			c-3.099-16.773-8.222-33.245-15.006-48.89c-5.269-12.153-11.582-24.345-20.261-34.449c-2.851-3.319-6.067-6.551-9.899-8.732
			c-2.576-1.466-5.646-2.484-8.609-1.711c-3.798,0.991-6.085,4.56-7.432,8.004c-2.314,5.914-2.715,12.578-2.698,18.861
			c0.006,2.087,0.082,4.172,0.203,6.255c0.028,0.48,0.778,0.483,0.75,0c-0.402-6.951-0.404-14.13,1.239-20.937
			c0.967-4.008,2.689-8.843,6.605-10.871c6.674-3.455,14.188,3.968,18.205,8.407c8.416,9.3,14.544,20.746,19.711,32.09
			c6.823,14.98,11.998,30.793,15.419,46.891c2.794,13.15,4.828,27.11,3.216,40.558c-0.156,1.306-0.362,2.604-0.617,3.894
			C131.34,160.243,132.063,160.445,132.156,159.971L132.156,159.971z"/>
	</g>
	<g>
		<linearGradient id="SVGID_18_" gradientUnits="userSpaceOnUse" x1="96.2342" y1="161.9665" x2="126.1099" y2="161.9665">
			<stop  offset="0" style="stop-color:#46296F"/>
			<stop  offset="0.1391" style="stop-color:#4D2F71"/>
			<stop  offset="0.3766" style="stop-color:#5E4278"/>
			<stop  offset="0.6836" style="stop-color:#7C6085"/>
			<stop  offset="1" style="stop-color:#A68A97"/>
		</linearGradient>
		<path fill="url(#SVGID_18_)" d="M95.974,150.894c4.325,6.957,9.314,14.081,15.953,19.034c4.132,3.083,9.701,5.404,14.325,1.938
			c0.382-0.286,0.008-0.937-0.379-0.648c-4.666,3.497-10.216,0.729-14.217-2.436c-6.192-4.899-10.905-11.622-15.036-18.266
			C96.367,150.106,95.718,150.483,95.974,150.894L95.974,150.894z"/>
	</g>
	<g>
		<linearGradient id="SVGID_19_" gradientUnits="userSpaceOnUse" x1="67.8493" y1="106.5454" x2="93.236" y2="106.5454">
			<stop  offset="0" style="stop-color:#46296F"/>
			<stop  offset="0.8587" style="stop-color:#46296F"/>
			<stop  offset="1" style="stop-color:#46296F"/>
		</linearGradient>
		<path fill="url(#SVGID_19_)" d="M67.348,67.724c2.527,21.61,8.832,42.956,17.676,62.804c2.296,5.152,4.803,10.209,7.563,15.128
			c0.394,0.702,1.474,0.072,1.079-0.631c-10.466-18.656-17.749-39.308-22.213-60.196c-1.209-5.655-2.184-11.361-2.855-17.105
			C68.506,66.935,67.255,66.925,67.348,67.724L67.348,67.724z"/>
	</g>
</g>
<g id="Layer_17">
	<g>
		<linearGradient id="SVGID_20_" gradientUnits="userSpaceOnUse" x1="73.7103" y1="80.3802" x2="97.3635" y2="80.3802">
			<stop  offset="0" style="stop-color:#DFE564"/>
			<stop  offset="1" style="stop-color:#86CDB0"/>
		</linearGradient>
		<polygon fill="url(#SVGID_20_)" points="88.569,59.739 73.71,82.649 84.104,82.649 80.664,101.021 97.363,77.381 86.038,77.368 		
			"/>
		<g>
			<linearGradient id="SVGID_21_" gradientUnits="userSpaceOnUse" x1="73.2502" y1="80.3702" x2="97.8458" y2="80.3702">
				<stop  offset="0" style="stop-color:#DFE564"/>
				<stop  offset="1" style="stop-color:#86CDB0"/>
			</linearGradient>
			<path fill="url(#SVGID_21_)" d="M87.49,59.108c-4.342,6.694-8.683,13.389-13.025,20.083c-0.611,0.942-1.222,1.885-1.834,2.827
				c-0.523,0.807,0.165,1.881,1.079,1.881c3.465,0,6.929,0,10.394,0c-0.402-0.527-0.804-1.055-1.205-1.582
				c-1.147,6.124-2.293,12.248-3.44,18.372c-0.264,1.41,1.454,2.139,2.285,0.963c4.869-6.893,9.739-13.787,14.608-20.68
				c0.697-0.987,1.394-1.974,2.091-2.96c0.562-0.796-0.194-1.88-1.079-1.881c-3.775-0.004-7.55-0.008-11.326-0.013
				c0.402,0.527,0.804,1.055,1.205,1.582c0.844-5.876,1.687-11.752,2.531-17.629c0.226-1.574-2.183-2.253-2.411-0.665
				c-0.844,5.876-1.687,11.752-2.531,17.629c-0.113,0.788,0.312,1.581,1.205,1.582c3.775,0.004,7.55,0.008,11.326,0.013
				c-0.36-0.627-0.72-1.254-1.079-1.881c-4.869,6.893-9.739,13.787-14.608,20.68c-0.697,0.987-1.394,1.974-2.091,2.96
				c0.762,0.321,1.523,0.642,2.285,0.963c1.147-6.124,2.293-12.248,3.44-18.372c0.147-0.787-0.339-1.582-1.205-1.582
				c-3.465,0-6.929,0-10.394,0c0.36,0.627,0.72,1.254,1.079,1.881c4.342-6.694,8.683-13.389,13.025-20.083
				c0.611-0.942,1.222-1.885,1.834-2.827C90.526,59.016,88.363,57.762,87.49,59.108z"/>
		</g>
	</g>
	<g>
		<linearGradient id="SVGID_22_" gradientUnits="userSpaceOnUse" x1="95.0749" y1="71.4227" x2="97.1894" y2="71.4227">
			<stop  offset="0" style="stop-color:#D0DF63"/>
			<stop  offset="1" style="stop-color:#3C3C90"/>
		</linearGradient>
		<path fill="url(#SVGID_22_)" d="M94.965,70.542c0.074,0.018,0.148,0.038,0.22,0.062c0.036,0.012,0.071,0.025,0.107,0.038
			c0.098,0.035-0.083-0.041,0.019,0.007c0.124,0.059,0.244,0.121,0.359,0.197c0.031,0.02,0.061,0.042,0.091,0.063
			c0.103,0.07-0.08-0.068,0.016,0.011c0.057,0.047,0.112,0.095,0.165,0.146c0.049,0.047,0.095,0.095,0.14,0.146
			c0.024,0.027,0.047,0.056,0.071,0.084c0.023,0.028,0.016,0.019-0.021-0.029c0.011,0.015,0.022,0.029,0.033,0.044
			c0.083,0.114,0.156,0.235,0.22,0.361c0.017,0.033,0.032,0.067,0.048,0.1c0.044,0.094-0.03-0.089,0.006,0.018
			c0.022,0.065,0.046,0.128,0.065,0.194c0.019,0.066,0.036,0.133,0.05,0.2c0.008,0.037,0.014,0.074,0.02,0.112
			c0.023,0.127-0.009-0.111,0.002,0.018c0.013,0.156,0.016,0.31,0.005,0.466c-0.019,0.261,0.243,0.511,0.5,0.5
			c0.287-0.013,0.48-0.22,0.5-0.5c0.106-1.477-0.916-2.856-2.35-3.204c-0.254-0.062-0.554,0.08-0.615,0.349
			C94.557,70.185,94.693,70.476,94.965,70.542L94.965,70.542z"/>
	</g>
	<g>
		<linearGradient id="SVGID_23_" gradientUnits="userSpaceOnUse" x1="95.7678" y1="70.1121" x2="99.7292" y2="70.1121">
			<stop  offset="0" style="stop-color:#D0DF63"/>
			<stop  offset="1" style="stop-color:#3C3C90"/>
		</linearGradient>
		<path fill="url(#SVGID_23_)" d="M95.657,67.999c2.16,0.511,3.605,2.498,3.458,4.706c-0.018,0.27,0.243,0.5,0.5,0.5
			c0.286,0,0.482-0.229,0.5-0.5c0.175-2.632-1.627-5.063-4.192-5.67C95.297,66.887,95.03,67.851,95.657,67.999L95.657,67.999z"/>
	</g>
	<g>
		<linearGradient id="SVGID_24_" gradientUnits="userSpaceOnUse" x1="71.825" y1="90.5863" x2="74.07" y2="90.5863">
			<stop  offset="0" style="stop-color:#D0DF63"/>
			<stop  offset="1" style="stop-color:#3C3C90"/>
		</linearGradient>
		<path fill="url(#SVGID_24_)" d="M74.185,91.414c-0.148-0.028-0.294-0.066-0.435-0.118c-0.015-0.005-0.128-0.053-0.056-0.021
			c0.072,0.032-0.04-0.019-0.053-0.026c-0.064-0.031-0.126-0.064-0.187-0.1c-0.066-0.039-0.13-0.08-0.191-0.124
			c-0.032-0.023-0.117-0.053-0.011-0.006c-0.029-0.012-0.058-0.047-0.081-0.067c-0.106-0.092-0.204-0.192-0.293-0.299
			c-0.011-0.013-0.022-0.027-0.033-0.041c-0.023-0.029-0.015-0.018,0.025,0.032c-0.006-0.023-0.047-0.066-0.061-0.085
			c-0.04-0.058-0.077-0.117-0.112-0.178c-0.035-0.061-0.067-0.124-0.097-0.187c-0.01-0.021-0.02-0.043-0.029-0.064
			c0.008,0.018,0.015,0.036,0.023,0.054c-0.019-0.025-0.027-0.069-0.038-0.1c-0.048-0.135-0.085-0.275-0.11-0.416
			c-0.004-0.024-0.008-0.048-0.012-0.072c0.009,0.067,0.011,0.081,0.006,0.042c-0.003-0.037-0.007-0.073-0.01-0.11
			c-0.005-0.081-0.007-0.161-0.005-0.242c0.005-0.262-0.233-0.512-0.5-0.5c-0.275,0.012-0.495,0.22-0.5,0.5
			c-0.027,1.473,1.035,2.822,2.494,3.093c0.256,0.048,0.552-0.071,0.615-0.349C74.59,91.783,74.46,91.465,74.185,91.414
			L74.185,91.414z"/>
	</g>
	<g>
		<linearGradient id="SVGID_25_" gradientUnits="userSpaceOnUse" x1="69.2982" y1="91.9896" x2="73.5145" y2="91.9896">
			<stop  offset="0" style="stop-color:#D0DF63"/>
			<stop  offset="1" style="stop-color:#3C3C90"/>
		</linearGradient>
		<path fill="url(#SVGID_25_)" d="M73.63,93.99c-2.176-0.392-3.76-2.274-3.731-4.493c0.008-0.644-0.992-0.644-1,0
			c-0.034,2.63,1.864,4.989,4.465,5.458c0.265,0.048,0.539-0.072,0.615-0.349C74.046,94.363,73.898,94.039,73.63,93.99L73.63,93.99z
			"/>
	</g>
</g>
<g id="Layer_9">
	<g>
		<g>
			<linearGradient id="SVGID_26_" gradientUnits="userSpaceOnUse" x1="74.2232" y1="123.1927" x2="106.2677" y2="123.1927">
				<stop  offset="0" style="stop-color:#F06597"/>
				<stop  offset="0.5419" style="stop-color:#FDF2E7"/>
				<stop  offset="1" style="stop-color:#E763A5"/>
			</linearGradient>
			<path fill="url(#SVGID_26_)" d="M73.967,116.186c1.377,0.744,3.061,1.736,4.654,1.842c1.04,0.069,1.746-0.646,2.59-1.135
				c0.715-0.414,0.448,0.047,0.231,0.57c-0.185,0.446-0.433,0.866-0.64,1.302c-0.531,1.118-0.943,3.03,0.982,2.791
				c1.68-0.209,3.074-2.146,4.159-3.262c0.302-0.311,0.604-0.652,0.95-0.916c0.024-0.018,0.401-0.259,0.404-0.279
				c-0.008,0.057-0.108-0.384-0.268-0.306c-0.017,0.008-0.138,0.677-0.159,0.74c-0.148,0.462-0.352,0.907-0.553,1.347
				c-0.727,1.59-1.669,3.134-2.211,4.801c-0.297,0.914-0.156,2.081,1.098,1.79c1.192-0.277,2.305-1.573,3.138-2.381
				c1.405-1.362,2.732-2.801,4.093-4.207c0.589-0.609,1.179-1.219,1.803-1.793c0.095-0.088,1.073-0.767,1.08-0.831
				c0.169-1.514-0.692-0.326-0.564-0.414c-0.038,0.026-0.034,0.201-0.062,0.244c-0.111,0.166-0.159,0.442-0.238,0.629
				c-0.272,0.644-0.602,1.267-0.925,1.886c-0.861,1.651-1.776,3.274-2.67,4.907c-0.837,1.528-1.689,3.059-2.413,4.645
				c-0.313,0.685-1.073,1.988-0.645,2.764c1.151,2.085,5.284-3.864,5.795-4.505c0.98-1.228,2.032-2.643,3.136-3.652
				c-0.102-0.007-0.204-0.013-0.305-0.02c0.012,0.116,0.009,0.231-0.01,0.347c-0.116,0.238-0.145,0.59-0.226,0.847
				c-0.171,0.542-0.392,1.068-0.556,1.613c-0.209,0.697-0.451,1.591,0.03,2.23c1.382,1.834,3.732-1.494,4.774-2.111
				c0.963-0.571,2.254,0.134,3.179,0.539c0.774,0.339,1.535,0.716,2.275,1.123c0.705,0.388,1.336-0.691,0.631-1.079
				c-1.46-0.804-3.079-1.668-4.728-1.992c-2.142-0.42-3.022,1.603-4.628,2.553c-0.484,0.286-0.567,0.274-0.498-0.287
				c0.056-0.451,0.255-0.905,0.403-1.332c0.267-0.771,0.674-1.631,0.606-2.467c-0.114-1.398-1.278-1.363-2.089-0.611
				c-1.233,1.144-2.227,2.603-3.273,3.911c-0.565,0.706-1.132,1.412-1.723,2.097c-0.536,0.623-1.218,1.158-1.731,1.785
				c-0.024,0.029-0.379,0.218-0.379,0.217c-0.043-0.78,0.483,0.303,0.459,0.312c-0.027,0.01,0.039-0.17,0.02-0.149
				c0.289-0.313,0.448-1.256,0.637-1.664c0.728-1.565,1.568-3.079,2.398-4.592c0.876-1.597,1.77-3.185,2.612-4.8
				c0.489-0.938,1.223-2.052,1.362-3.126c0.132-1.018-0.727-1.284-1.499-0.816c-1.236,0.75-2.266,2.026-3.255,3.055
				c-1.375,1.43-2.721,2.892-4.167,4.252c-0.503,0.473-1.016,0.964-1.593,1.348c-0.098,0.065-0.535,0.23-0.583,0.318
				c-0.073,0.136,2.177-0.507,0.299,0.312c0.022-0.01,0.066-0.374,0.093-0.418c0.367-0.591,0.576-1.417,0.881-2.053
				c0.448-0.934,0.921-1.856,1.345-2.801c0.354-0.79,1.356-2.544,0.432-3.278c-1.221-0.97-3.061,1.597-3.746,2.306
				c-0.44,0.455-1.814,2.174-2.568,1.997c-0.327-0.077,0.02,0.135-0.078-0.026c-0.063-0.104,0.216-0.613,0.251-0.696
				c0.223-0.515,0.511-1,0.741-1.513c0.285-0.638,0.662-1.5,0.238-2.166c-0.596-0.937-1.711-0.414-2.425,0.043
				c-0.465,0.298-0.958,0.776-1.53,0.822c-0.531,0.043-1.208-0.298-1.688-0.489c-0.862-0.343-1.703-0.756-2.52-1.197
				C73.89,114.724,73.259,115.803,73.967,116.186L73.967,116.186z"/>
		</g>
	</g>
	<g>
		<linearGradient id="SVGID_27_" gradientUnits="userSpaceOnUse" x1="105.6378" y1="126.9552" x2="109.5987" y2="126.9552">
			<stop  offset="0" style="stop-color:#F06597"/>
			<stop  offset="1" style="stop-color:#E763A5"/>
		</linearGradient>
		<polygon fill="url(#SVGID_27_)" points="109.599,128.654 107.863,125.094 105.638,128.817 		"/>
		<g>
			<linearGradient id="SVGID_28_" gradientUnits="userSpaceOnUse" x1="105.4118" y1="126.9577" x2="109.7948" y2="126.9577">
				<stop  offset="0" style="stop-color:#F06597"/>
				<stop  offset="1" style="stop-color:#E763A5"/>
			</linearGradient>
			<path fill="url(#SVGID_28_)" d="M110.138,128.339c-0.507-1.04-1.014-2.079-1.52-3.119c-0.072-0.147-0.143-0.294-0.215-0.441
				c-0.212-0.434-0.853-0.379-1.079,0c-0.649,1.086-1.298,2.171-1.947,3.257c-0.093,0.155-0.186,0.311-0.279,0.466
				c-0.236,0.395,0.064,0.96,0.54,0.94c1.154-0.047,2.308-0.095,3.462-0.142c0.166-0.007,0.332-0.014,0.498-0.02
				c0.326-0.013,0.641-0.278,0.625-0.625c-0.015-0.327-0.275-0.639-0.625-0.625c-1.154,0.047-2.308,0.095-3.462,0.142
				c-0.166,0.007-0.332,0.014-0.498,0.02c0.18,0.313,0.36,0.627,0.54,0.94c0.649-1.086,1.298-2.171,1.947-3.257
				c0.093-0.155,0.186-0.311,0.279-0.466c-0.36,0-0.72,0-1.079,0c0.507,1.04,1.014,2.079,1.52,3.119
				c0.072,0.147,0.143,0.294,0.215,0.441c0.144,0.295,0.586,0.398,0.855,0.224C110.216,128.999,110.292,128.654,110.138,128.339z"/>
		</g>
	</g>
</g>
<g id="Layer_16">
	<g>
		<g>
			<linearGradient id="SVGID_29_" gradientUnits="userSpaceOnUse" x1="123.0923" y1="166.0632" x2="136.0941" y2="166.0632">
				<stop  offset="0" style="stop-color:#DFE564"/>
				<stop  offset="1" style="stop-color:#86CDB0"/>
			</linearGradient>
			<path fill="url(#SVGID_29_)" d="M128.229,160.476c2.325-0.541,4.822,0.38,6.149,2.393c1.332,2.021,1.27,4.712-0.188,6.653
				c-1.441,1.917-3.997,2.734-6.285,2.036c-2.272-0.693-3.933-2.803-4.054-5.18C123.71,163.609,125.569,161.173,128.229,160.476
				c0.778-0.204,0.448-1.41-0.332-1.205c-2.813,0.737-4.91,3.108-5.255,6.001c-0.347,2.911,1.271,5.851,3.928,7.099
				c2.646,1.244,5.862,0.734,7.95-1.336c2.081-2.063,2.624-5.241,1.43-7.898c-1.376-3.063-4.831-4.616-8.053-3.866
				C127.113,159.453,127.445,160.659,128.229,160.476z"/>
		</g>
		<g>
			<linearGradient id="SVGID_30_" gradientUnits="userSpaceOnUse" x1="126.3667" y1="166.0213" x2="133.1468" y2="166.0213">
				<stop  offset="0" style="stop-color:#DFE564"/>
				<stop  offset="1" style="stop-color:#86CDB0"/>
			</linearGradient>
			<path fill="url(#SVGID_30_)" d="M126.367,166.646c1.98,0,3.96,0,5.94,0c0.28,0,0.56,0,0.84,0c0.804,0,0.806-1.25,0-1.25
				c-1.98,0-3.96,0-5.94,0c-0.28,0-0.56,0-0.84,0C125.562,165.396,125.561,166.646,126.367,166.646L126.367,166.646z"/>
		</g>
		<g>
			<linearGradient id="SVGID_31_" gradientUnits="userSpaceOnUse" x1="129.6317" y1="166.0213" x2="129.8817" y2="166.0213">
				<stop  offset="0" style="stop-color:#DFE564"/>
				<stop  offset="1" style="stop-color:#86CDB0"/>
			</linearGradient>
			<path fill="url(#SVGID_31_)" d="M129.132,162.631c0,1.98,0,3.96,0,5.94c0,0.28,0,0.56,0,0.84c0,0.804,1.25,0.806,1.25,0
				c0-1.98,0-3.96,0-5.94c0-0.28,0-0.56,0-0.84C130.382,161.827,129.132,161.826,129.132,162.631L129.132,162.631z"/>
		</g>
	</g>
</g>
<g id="Layer_11">
</g>
<g id="Layer_18">
	<linearGradient id="SVGID_32_" gradientUnits="userSpaceOnUse" x1="135.9691" y1="111.3608" x2="142.0621" y2="111.3608">
		<stop  offset="0" style="stop-color:#F06597"/>
		<stop  offset="1" style="stop-color:#F9CFD3"/>
		<stop  offset="1" style="stop-color:#E763A5"/>
	</linearGradient>
	<polygon fill="url(#SVGID_32_)" points="142.062,111.361 139.016,115.357 135.969,111.361 139.016,107.365 	"/>
</g>
<g id="Layer_19">
</g>
<g id="Layer_15">
	<g>
		<linearGradient id="SVGID_33_" gradientUnits="userSpaceOnUse" x1="111.2293" y1="97.2345" x2="113.5164" y2="95.6377">
			<stop  offset="0" style="stop-color:#DFE564"/>
			<stop  offset="1" style="stop-color:#86CDB0"/>
		</linearGradient>
		<circle fill="url(#SVGID_33_)" cx="112.373" cy="96.436" r="1.395"/>
		<linearGradient id="SVGID_34_" gradientUnits="userSpaceOnUse" x1="111.0235" y1="97.3763" x2="113.7207" y2="95.4932">
			<stop  offset="0" style="stop-color:#DFE564"/>
			<stop  offset="1" style="stop-color:#86CDB0"/>
		</linearGradient>
		<path fill="url(#SVGID_34_)" d="M112.376,98.082c-0.081,0-0.163-0.006-0.245-0.019c-0.435-0.064-0.817-0.294-1.079-0.647
			c-0.262-0.353-0.37-0.787-0.306-1.221c0.133-0.898,0.962-1.524,1.868-1.385c0.435,0.064,0.818,0.294,1.08,0.647
			c0.261,0.353,0.369,0.786,0.305,1.221l0,0c-0.063,0.435-0.294,0.818-0.646,1.08C113.065,97.97,112.726,98.082,112.376,98.082z
			 M112.37,95.292c-0.244,0-0.479,0.077-0.679,0.225c-0.246,0.182-0.406,0.449-0.451,0.751c-0.093,0.625,0.34,1.208,0.965,1.301
			c0.299,0.043,0.604-0.031,0.85-0.213s0.405-0.449,0.45-0.751l0,0c0.045-0.303-0.03-0.604-0.213-0.85
			c-0.182-0.246-0.449-0.406-0.751-0.45C112.483,95.295,112.427,95.292,112.37,95.292z"/>
	</g>
</g>
<g id="Layer_12">
</g>
<g id="Layer_5">
</g>
<g id="Layer_10">
</g>
<g id="Layer_6">
</g>
<g id="Layer_7">
</g>
<g id="Layer_13">
</g>
</svg>
