<svg width="696.2px" height="122px" xmlns="http://www.w3.org/2000/svg" viewBox="-98.09157714843747 14 696.1831542968749 122" style="background: none" preserveAspectRatio="xMidYMid"><defs><filter id="editing-crystal" x="-100%" y="-100%" width="300%" height="300%"><feMorphology operator="dilate" radius="2" in="SourceGraphic" result="border"></feMorphology><feFlood flood-color="#88e0eb" result="black"></feFlood><feMorphology operator="dilate" radius="2" in="SourceGraphic" result="erode"></feMorphology><feGaussianBlur in="erode" stdDeviation="4" result="blur"></feGaussianBlur><feOffset in="blur" dx="2" dy="2" result="offset"></feOffset><feComposite operator="atop" in="offset" in2="black" result="merge"></feComposite><feComposite operator="in" in="merge" in2="SourceGraphic" result="inner-shadow"></feComposite><feGaussianBlur in="SourceGraphic" stdDeviation="2.5" result="shadow1"></feGaussianBlur><feOffset in="shadow1" dx="0" dy="5" result="shadow"></feOffset><feSpecularLighting in="SourceGraphic" result="specular" surfaceScale="1.5" specularConstant="100" specularExponent="10" lighting-color="#ffffff"><fePointLight x="250" y="-300" z="-400"></fePointLight></feSpecularLighting><feGaussianBlur in="specular" stdDeviation="1" result="specular2"></feGaussianBlur><feComposite operator="in" in="specular2" in2="SourceAlpha" result="specular3"></feComposite><feMerge result="merge"><feMergeNode in="border"></feMergeNode><feMergeNode in="inÑner-shadow"></feMergeNode><feMergeNode in="specular3"></feMergeNode></feMerge><feComponentTransfer in="merge" result="final"><feFuncA type="linear" slope="0.9" intercept="0"></feFuncA></feComponentTransfer><feMerge><feMergeNode in="shadow"></feMergeNode><feMergeNode in="final"></feMergeNode></feMerge></filter></defs><g filter="url(#editing-crystal)"><g transform="matrix(1.2,0,0,1.2,-40.9,127.6)"><path d="M 5.2 -20.9 L 6.6 -25.6 L 6.6 -25.6 Q 8.9 -24.4 12.2 -24.4 L 12.2 -24.4 L 12.2 -24.4 Q 15.5 -24.4 18.3 -26.4 L 18.3 -26.4 L 18.3 -26.4 Q 21.1 -28.4 23.1 -32.1 L 23.1 -32.1 L 23.1 -32.1 Q 27.2 -40 27.2 -52.7 L 27.2 -52.7 L 27.2 -52.7 Q 27.2 -60.7 23.5 -60.7 L 23.5 -60.7 L 23.5 -60.7 Q 21.6 -60.7 19.8 -58.6 L 19.8 -58.6 L 19.8 -58.6 Q 17.9 -56.5 16.4 -53.1 L 16.4 -53.1 L 16.4 -53.1 Q 13.2 -45.4 13.2 -36.3 L 13.2 -36.3 L 13.2 -36.3 Q 13.2 -34.4 14.1 -33.3 L 14.1 -33.3 L 14.1 -33.3 Q 15 -32.2 16.6 -32.2 L 16.6 -32.2 L 16.6 -32.2 Q 16.4 -30.2 14.6 -28.8 L 14.6 -28.8 L 14.6 -28.8 Q 12.9 -27.4 10.7 -27.4 L 10.7 -27.4 L 10.7 -27.4 Q 5.6 -27.4 2.9 -30.6 L 2.9 -30.6 L 2.9 -30.6 Q 0.2 -33.9 0.2 -39.7 L 0.2 -39.7 L 0.2 -39.7 Q 0.2 -45.6 2 -50.2 L 2 -50.2 L 2 -50.2 Q 3.8 -54.8 7 -58.1 L 7 -58.1 L 7 -58.1 Q 10.1 -61.5 14.4 -63.4 L 14.4 -63.4 L 14.4 -63.4 Q 18.7 -65.3 23.9 -65.3 L 23.9 -65.3 L 23.9 -65.3 Q 41 -65.3 41 -48.6 L 41 -48.6 L 41 -48.6 Q 41 -36.6 35.3 -29.3 L 35.3 -29.3 L 35.3 -29.3 Q 29.5 -21.8 19.5 -20.9 L 19.5 -20.9 L 19.5 -20.9 Q 25.4 -19.7 31.3 -19.7 L 31.3 -19.7 L 31.3 -19.7 Q 36 -19.7 39.5 -21.6 L 39.5 -21.6 L 39.5 -21.6 Q 40.4 -22.2 40.8 -22.9 L 40.8 -22.9 L 40.8 -22.9 Q 42.7 -21.1 42.7 -17.7 L 42.7 -17.7 L 42.7 -17.7 Q 42.7 -14.3 39.7 -12.3 L 39.7 -12.3 L 39.7 -12.3 Q 36.7 -10.3 30.7 -10.3 L 30.7 -10.3 L 30.7 -10.3 Q 24.8 -10.3 18 -13.1 L 18 -13.1 L 18 -13.1 Q 11.1 -15.8 5.2 -20.9 L 5.2 -20.9 Z M 64.6 -24.5 L 64.6 -24.5 L 64.6 -24.5 Q 61.6 -20.5 53.9 -20.5 L 53.9 -20.5 L 53.9 -20.5 Q 50 -20.5 47.1 -22.9 L 47.1 -22.9 L 47.1 -22.9 Q 44.2 -25.3 44.2 -28.7 L 44.2 -28.7 L 44.2 -28.7 Q 44.2 -30.7 44.4 -31.6 L 44.4 -31.6 L 48.7 -54.4 L 61.7 -55.7 L 57 -31 L 57 -31 Q 56.8 -29.6 56.8 -28.7 L 56.8 -28.7 L 56.8 -28.7 Q 56.8 -25 59 -25 L 59 -25 L 59 -25 Q 61.5 -25 63.3 -28.4 L 63.3 -28.4 L 63.3 -28.4 Q 63.9 -29.5 64.1 -30.9 L 64.1 -30.9 L 68.7 -54.4 L 81.3 -55.7 L 76.5 -30.7 L 76.5 -30.7 Q 76.3 -29.8 76.3 -28.7 L 76.3 -28.7 L 76.3 -28.7 Q 76.3 -27.7 76.9 -26.6 L 76.9 -26.6 L 76.9 -26.6 Q 77.5 -25.5 79.3 -25.2 L 79.3 -25.2 L 79.3 -25.2 Q 79 -23.7 77.6 -22.7 L 77.6 -22.7 L 77.6 -22.7 Q 74.8 -20.5 71.8 -20.5 L 71.8 -20.5 L 71.8 -20.5 Q 68.7 -20.5 66.9 -21.6 L 66.9 -21.6 L 66.9 -21.6 Q 65.1 -22.7 64.6 -24.5 Z M 87.3 -23.7 L 87.3 -23.7 L 87.3 -23.7 Q 85.7 -25.3 85.1 -28 L 85.1 -28 L 85.1 -28 Q 84.4 -30.6 84.4 -34.9 L 84.4 -34.9 L 84.4 -34.9 Q 84.4 -39.2 85.9 -43.1 L 85.9 -43.1 L 85.9 -43.1 Q 87.3 -47 90 -49.8 L 90 -49.8 L 90 -49.8 Q 95.5 -55.7 104.6 -55.7 L 104.6 -55.7 L 104.6 -55.7 Q 107.9 -55.7 110.3 -54.6 L 110.3 -54.6 L 121.2 -55.7 L 116.5 -30.7 L 116.5 -30.7 Q 116.3 -30 116.3 -28.5 L 116.3 -28.5 L 116.3 -28.5 Q 116.3 -27.1 117.1 -26.2 L 117.1 -26.2 L 117.1 -26.2 Q 118 -25.3 119.3 -25.2 L 119.3 -25.2 L 119.3 -25.2 Q 118.6 -23 116.3 -21.8 L 116.3 -21.8 L 116.3 -21.8 Q 114 -20.5 111.3 -20.5 L 111.3 -20.5 L 111.3 -20.5 Q 108.7 -20.5 107 -21.5 L 107 -21.5 L 107 -21.5 Q 105.2 -22.5 104.7 -24.1 L 104.7 -24.1 L 104.7 -24.1 Q 103.7 -22.5 101.5 -21.5 L 101.5 -21.5 L 101.5 -21.5 Q 99.3 -20.5 96.4 -20.5 L 96.4 -20.5 L 96.4 -20.5 Q 93.5 -20.5 91.1 -21.3 L 91.1 -21.3 L 91.1 -21.3 Q 88.8 -22 87.3 -23.7 Z M 100.8 -49.7 L 100.8 -49.7 L 100.8 -49.7 Q 100 -48.5 99.4 -46.6 L 99.4 -46.6 L 99.4 -46.6 Q 98.7 -44.6 97.7 -39.4 L 97.7 -39.4 L 97.7 -39.4 Q 96.6 -34.2 96.6 -30.5 L 96.6 -30.5 L 96.6 -30.5 Q 96.6 -26.8 97.2 -25.7 L 97.2 -25.7 L 97.2 -25.7 Q 97.8 -24.6 98.8 -24.6 L 98.8 -24.6 L 98.8 -24.6 Q 100.9 -24.6 102.4 -26.5 L 102.4 -26.5 L 102.4 -26.5 Q 103.9 -28.5 104.4 -31.9 L 104.4 -31.9 L 107.8 -50.7 L 107.8 -50.7 Q 106.5 -51.8 104.9 -51.8 L 104.9 -51.8 L 104.9 -51.8 Q 103.3 -51.8 102.4 -51.3 L 102.4 -51.3 L 102.4 -51.3 Q 101.5 -50.8 100.8 -49.7 Z M 151.7 -20.5 L 151.7 -20.5 L 151.7 -20.5 Q 144 -20.5 144 -26.5 L 144 -26.5 L 144 -26.5 Q 144.1 -28.2 144.6 -31 L 144.6 -31 L 145.7 -36.9 L 145.7 -36.9 Q 147.4 -45.2 147.4 -47 L 147.4 -47 L 147.4 -47 Q 147.4 -50.8 145.3 -50.8 L 145.3 -50.8 L 145.3 -50.8 Q 141.6 -50.8 139.7 -41.2 L 139.7 -41.2 L 135.9 -21.8 L 123.1 -20.5 L 129.7 -54.5 L 140.2 -55.7 L 139.2 -49.4 L 139.2 -49.4 Q 142.2 -55.7 151.4 -55.7 L 151.4 -55.7 L 151.4 -55.7 Q 155.9 -55.7 157.8 -53.8 L 157.8 -53.8 L 157.8 -53.8 Q 159.7 -51.9 159.7 -47.7 L 159.7 -47.7 L 159.7 -47.7 Q 159.7 -43.7 157.6 -34.4 L 157.6 -34.4 L 157.6 -34.4 Q 156.7 -30.3 156.7 -28.7 L 156.7 -28.7 L 156.7 -28.7 Q 156.7 -27.1 157.5 -26.2 L 157.5 -26.2 L 157.5 -26.2 Q 158.4 -25.3 159.7 -25.2 L 159.7 -25.2 L 159.7 -25.2 Q 159 -23 156.8 -21.8 L 156.8 -21.8 L 156.8 -21.8 Q 154.6 -20.5 151.7 -20.5 Z M 165.8 -28.2 L 165.8 -28.2 L 165.8 -28.2 Q 165.8 -29.9 166.7 -34.2 L 166.7 -34.2 L 170.1 -51.5 L 166.3 -51.5 L 166.6 -53.4 L 166.6 -53.4 Q 174.3 -55.7 181.7 -61.4 L 181.7 -61.4 L 184.8 -61.4 L 183.2 -54.4 L 188.2 -54.4 L 187.6 -51.5 L 182.7 -51.5 L 179.4 -34.2 L 179.4 -34.2 Q 178.6 -30.3 178.6 -28.9 L 178.6 -28.9 L 178.6 -28.9 Q 178.6 -25.9 181.3 -25.2 L 181.3 -25.2 L 181.3 -25.2 Q 180.7 -23 178.4 -21.8 L 178.4 -21.8 L 178.4 -21.8 Q 176.1 -20.5 172.8 -20.5 L 172.8 -20.5 L 172.8 -20.5 Q 169.5 -20.5 167.7 -22.5 L 167.7 -22.5 L 167.7 -22.5 Q 165.8 -24.6 165.8 -28.2 Z M 208.4 -24.5 L 208.4 -24.5 L 208.4 -24.5 Q 205.4 -20.5 197.7 -20.5 L 197.7 -20.5 L 197.7 -20.5 Q 193.8 -20.5 190.9 -22.9 L 190.9 -22.9 L 190.9 -22.9 Q 188 -25.3 188 -28.7 L 188 -28.7 L 188 -28.7 Q 188 -30.7 188.2 -31.6 L 188.2 -31.6 L 192.5 -54.4 L 205.5 -55.7 L 200.8 -31 L 200.8 -31 Q 200.6 -29.6 200.6 -28.7 L 200.6 -28.7 L 200.6 -28.7 Q 200.6 -25 202.8 -25 L 202.8 -25 L 202.8 -25 Q 205.3 -25 207.1 -28.4 L 207.1 -28.4 L 207.1 -28.4 Q 207.7 -29.5 207.9 -30.9 L 207.9 -30.9 L 212.5 -54.4 L 225.1 -55.7 L 220.3 -30.7 L 220.3 -30.7 Q 220.1 -29.8 220.1 -28.7 L 220.1 -28.7 L 220.1 -28.7 Q 220.1 -27.7 220.7 -26.6 L 220.7 -26.6 L 220.7 -26.6 Q 221.3 -25.5 223.2 -25.2 L 223.2 -25.2 L 223.2 -25.2 Q 222.8 -23.7 221.4 -22.7 L 221.4 -22.7 L 221.4 -22.7 Q 218.6 -20.5 215.6 -20.5 L 215.6 -20.5 L 215.6 -20.5 Q 212.5 -20.5 210.7 -21.6 L 210.7 -21.6 L 210.7 -21.6 Q 208.9 -22.7 208.4 -24.5 Z M 274.6 -20.5 L 274.6 -20.5 L 274.6 -20.5 Q 266.9 -20.5 266.9 -26.5 L 266.9 -26.5 L 266.9 -26.5 Q 266.9 -29.1 268 -34.2 L 268 -34.2 L 268 -34.2 Q 269.1 -39.3 269.5 -41.3 L 269.5 -41.3 L 269.5 -41.3 Q 270.4 -46 270.4 -47.5 L 270.4 -47.5 L 270.4 -47.5 Q 270.4 -50.8 268 -50.8 L 268 -50.8 L 268 -50.8 Q 266.4 -50.8 264.8 -48.5 L 264.8 -48.5 L 264.8 -48.5 Q 263.3 -46.3 262.6 -41.9 L 262.6 -41.9 L 258.6 -21.8 L 246.1 -20.5 L 249.6 -37.9 L 249.6 -37.9 Q 250.2 -40.8 250.7 -44 L 250.7 -44 L 250.7 -44 Q 251.2 -47.3 251.2 -47.8 L 251.2 -47.8 L 251.2 -47.8 Q 251.2 -50.8 249 -50.8 L 249 -50.8 L 249 -50.8 Q 247.5 -50.8 245.9 -48.6 L 245.9 -48.6 L 245.9 -48.6 Q 244.3 -46.4 243.4 -41.9 L 243.4 -41.9 L 239.5 -21.8 L 226.9 -20.5 L 233.7 -54.4 L 244.1 -55.7 L 243 -49.2 L 243 -49.2 Q 244.7 -52.7 247.7 -54.2 L 247.7 -54.2 L 247.7 -54.2 Q 250.8 -55.7 255.6 -55.7 L 255.6 -55.7 L 255.6 -55.7 Q 258.4 -55.7 260.1 -54.3 L 260.1 -54.3 L 260.1 -54.3 Q 261.9 -53 262.5 -50.8 L 262.5 -50.8 L 262.5 -50.8 Q 263.6 -53.1 266.4 -54.4 L 266.4 -54.4 L 266.4 -54.4 Q 269.2 -55.7 272.6 -55.7 L 272.6 -55.7 L 272.6 -55.7 Q 276 -55.7 277.7 -54.9 L 277.7 -54.9 L 277.7 -54.9 Q 279.4 -54.2 280.4 -53 L 280.4 -53 L 280.4 -53 Q 282.2 -50.8 282.2 -46.7 L 282.2 -46.7 L 282.2 -46.7 Q 282.2 -42.6 280.4 -34.2 L 280.4 -34.2 L 280.4 -34.2 Q 279.5 -30.1 279.5 -28.6 L 279.5 -28.6 L 279.5 -28.6 Q 279.5 -27.1 280.4 -26.2 L 280.4 -26.2 L 280.4 -26.2 Q 281.3 -25.3 282.5 -25.2 L 282.5 -25.2 L 282.5 -25.2 Q 281.9 -23 279.7 -21.8 L 279.7 -21.8 L 279.7 -21.8 Q 277.5 -20.5 274.6 -20.5 Z M 302.3 -61.4 L 302.3 -61.4 L 302.3 -61.4 Q 303.2 -63.2 305.1 -64.2 L 305.1 -64.2 L 305.1 -64.2 Q 307.1 -65.2 309.7 -65.2 L 309.7 -65.2 L 309.7 -65.2 Q 314 -65.2 316.5 -62.2 L 316.5 -62.2 L 316.5 -62.2 Q 319 -59.1 319 -52.5 L 319 -52.5 L 319 -29.6 L 333.7 -63.9 L 341.2 -63.9 L 343 -31.6 L 342.8 -29.7 L 358 -63.9 L 366.8 -63.9 L 346.3 -21.8 L 332.7 -21.8 L 331.4 -41.2 L 322.9 -21.8 L 307.5 -21.8 L 305.6 -52.5 L 305.6 -52.5 Q 305.4 -55.9 304.5 -58.2 L 304.5 -58.2 L 304.5 -58.2 Q 303.5 -60.5 302.3 -61.4 Z M 376.9 -20.5 L 376.9 -20.5 L 376.9 -20.5 Q 362.8 -20.5 362.8 -33.7 L 362.8 -33.7 L 362.8 -33.7 Q 362.8 -43.1 368 -49.2 L 368 -49.2 L 368 -49.2 Q 373.5 -55.7 383 -55.7 L 383 -55.7 L 383 -55.7 Q 389.9 -55.7 393.5 -52.5 L 393.5 -52.5 L 393.5 -52.5 Q 397 -49.3 397 -42.6 L 397 -42.6 L 397 -42.6 Q 397 -32.3 391.5 -26.4 L 391.5 -26.4 L 391.5 -26.4 Q 386.1 -20.5 376.9 -20.5 Z M 378.5 -48.3 L 378.5 -48.3 L 378.5 -48.3 Q 377.8 -46.6 377.2 -44 L 377.2 -44 L 377.2 -44 Q 376.6 -41.4 375.8 -37.3 L 375.8 -37.3 L 375.8 -37.3 Q 375 -33.2 375 -28.2 L 375 -28.2 L 375 -28.2 Q 375 -26.5 375.6 -25.4 L 375.6 -25.4 L 375.6 -25.4 Q 376.1 -24.3 377.6 -24.3 L 377.6 -24.3 L 377.6 -24.3 Q 379.1 -24.3 380 -25 L 380 -25 L 380 -25 Q 380.9 -25.7 381.6 -27.4 L 381.6 -27.4 L 381.6 -27.4 Q 382.9 -30.3 383.9 -35.8 L 383.9 -35.8 L 383.9 -35.8 Q 384.9 -41.3 385 -43.7 L 385 -43.7 L 385 -43.7 Q 385.1 -46 385.1 -47.8 L 385.1 -47.8 L 385.1 -47.8 Q 385.1 -49.5 384.6 -50.7 L 384.6 -50.7 L 384.6 -50.7 Q 384.1 -51.8 382.7 -51.8 L 382.7 -51.8 L 382.7 -51.8 Q 381.2 -51.8 380.3 -50.9 L 380.3 -50.9 L 380.3 -50.9 Q 379.3 -50.1 378.5 -48.3 Z M 420.8 -39.7 L 420.8 -39.7 L 420.8 -39.7 Q 423.1 -43.8 423.1 -48 L 423.1 -48 L 423.1 -48 Q 423.1 -50.8 421.1 -50.8 L 421.1 -50.8 L 421.1 -50.8 Q 419.6 -50.8 418 -48.1 L 418 -48.1 L 418 -48.1 Q 416.3 -45.5 415.8 -42.1 L 415.8 -42.1 L 412.5 -21.8 L 399.2 -20.5 L 405.7 -54.4 L 416.3 -55.7 L 415.2 -49.2 L 415.2 -49.2 Q 418.3 -55.7 425.3 -55.7 L 425.3 -55.7 L 425.3 -55.7 Q 429 -55.7 431.1 -53.8 L 431.1 -53.8 L 431.1 -53.8 Q 433.1 -51.8 433.1 -47.9 L 433.1 -47.9 L 433.1 -47.9 Q 433.1 -44 430.5 -41.5 L 430.5 -41.5 L 430.5 -41.5 Q 427.9 -39 423.5 -39 L 423.5 -39 L 423.5 -39 Q 421.6 -39 420.8 -39.7 Z M 449.4 -25.3 L 449.4 -25.3 L 449.4 -25.3 Q 447.4 -20.5 441.1 -20.5 L 441.1 -20.5 L 441.1 -20.5 Q 437.9 -20.5 435.8 -22.7 L 435.8 -22.7 L 435.8 -22.7 Q 434.2 -24.6 434.2 -26.7 L 434.2 -26.7 L 434.2 -26.7 Q 434.2 -31.5 436.4 -42 L 436.4 -42 L 441.1 -66.6 L 454.1 -67.8 L 447.9 -35.5 L 447.9 -35.5 Q 446.8 -30.7 446.8 -29.1 L 446.8 -29.1 L 446.8 -29.1 Q 446.8 -25.4 449.4 -25.3 Z M 475 -55.7 L 475 -55.7 L 475 -55.7 Q 477.3 -55.7 479.1 -55.2 L 479.1 -55.2 L 479.1 -55.2 Q 479.2 -55.4 479.3 -56.1 L 479.3 -56.1 L 479.6 -58.1 L 479.6 -58.1 Q 479.9 -59.4 480.2 -61.5 L 480.2 -61.5 L 481.3 -66.6 L 494 -67.8 L 486.9 -30.7 L 486.9 -30.7 Q 486.8 -30.3 486.8 -29.7 L 486.8 -29.7 L 486.8 -28.7 L 486.8 -28.7 Q 486.8 -27.3 487.5 -26.2 L 487.5 -26.2 L 487.5 -26.2 Q 488.2 -25.2 489.4 -25.2 L 489.4 -25.2 L 489.4 -25.2 Q 488.1 -22.1 484.2 -20.9 L 484.2 -20.9 L 484.2 -20.9 Q 482.9 -20.5 481 -20.5 L 481 -20.5 L 481 -20.5 Q 479.1 -20.5 477.4 -21.5 L 477.4 -21.5 L 477.4 -21.5 Q 475.6 -22.5 475.1 -24.1 L 475.1 -24.1 L 475.1 -24.1 Q 474.1 -22.5 472.1 -21.5 L 472.1 -21.5 L 472.1 -21.5 Q 470 -20.5 467 -20.5 L 467 -20.5 L 467 -20.5 Q 464.1 -20.5 461.6 -21.3 L 461.6 -21.3 L 461.6 -21.3 Q 459.1 -22 457.6 -23.7 L 457.6 -23.7 L 457.6 -23.7 Q 454.8 -26.9 454.8 -34.4 L 454.8 -34.4 L 454.8 -34.4 Q 454.8 -44 460.4 -49.8 L 460.4 -49.8 L 460.4 -49.8 Q 466 -55.7 475 -55.7 Z M 474.5 -51.8 L 474.5 -51.8 L 474.5 -51.8 Q 472.2 -51.8 470.9 -49.3 L 470.9 -49.3 L 470.9 -49.3 Q 469.6 -46.7 468.3 -40.4 L 468.3 -40.4 L 468.3 -40.4 Q 467 -34.1 467 -28.4 L 467 -28.4 L 467 -28.4 Q 467 -24.5 469.3 -24.5 L 469.3 -24.5 L 469.3 -24.5 Q 471.3 -24.5 472.8 -26.5 L 472.8 -26.5 L 472.8 -26.5 Q 474.2 -28.5 474.8 -31.9 L 474.8 -31.9 L 478.3 -50.7 L 478.3 -50.7 Q 476.9 -51.8 474.5 -51.8 Z" fill="#b1eff0" stroke="#50a2ab" stroke-width="1.5"></path></g></g><style>text {
  font-size: 64px;
  font-family: Arial Black;
  dominant-baseline: central;
  text-anchor: middle;
}</style></svg>